<svg width="100" height="100" viewBox="0 0 100 100" fill="none" xmlns="http://www.w3.org/2000/svg">
<path fill-rule="evenodd" clip-rule="evenodd" d="M56.7856 29.0933C56.7694 28.9811 56.7547 28.8705 56.7384 28.7584C57.3817 28.7215 58.0367 28.5813 58.6637 28.664C62.8623 29.2116 66.855 30.8089 70.2728 33.3083C70.6906 33.6435 71.0241 34.072 71.2465 34.5593C75.2992 42.7531 77.5455 51.7216 77.8337 60.8583C77.8361 61.4825 77.6363 62.0907 77.2642 62.5918C74.3977 66.2447 70.5354 68.1523 66.0195 68.9357C63.0084 69.4535 60.6745 68.0505 59.8232 65.0453C62.5658 64.0716 65.1343 62.8043 67.0286 60.5087C56.2457 66.199 43.5581 67.0945 31.0889 60.3523C33.3019 62.9459 36.1197 64.1276 39.0939 65.2548C38.2338 66.2978 37.4489 67.121 36.8234 68.0476C36.2333 68.9327 35.5325 69.2617 34.485 69.1555C29.3584 68.6421 24.8956 66.7861 21.5423 62.7408C21.1528 62.2687 20.9315 61.506 20.9359 60.8804C21.0082 51.552 23.4749 42.8034 27.4656 34.4369C27.6131 34.1315 27.771 33.7803 28.0277 33.59C31.8516 30.7692 36.0769 28.9487 40.8627 28.6566C41.3053 28.63 41.7627 28.9989 42.2127 29.1833C40.9528 29.9755 39.7961 30.3635 38.672 30.8238C37.5847 31.2664 36.5121 31.7547 35.4647 32.2829C34.4172 32.8111 33.4361 33.4012 32.4241 33.9633C44.2264 29.1906 55.8739 29.5373 67.4977 34.4737C67.5494 34.3262 67.6025 34.1625 67.6556 34.0061L56.7856 29.0933ZM49.9993 0C77.6139 2.41414e-06 100 22.3865 100 50C100 77.6135 77.6139 100 49.9993 100C22.3847 100 -2.41405e-06 77.6135 0 50C0.00737889 22.3909 22.3979 -2.41299e-06 50.0066 6.42331e-10L49.9993 0Z" fill="white"/>
<path fill-rule="evenodd" clip-rule="evenodd" d="M41.5751 46.6669C38.9431 46.6506 36.6815 49.0672 36.6668 51.9101C36.6505 54.7826 38.8458 57.146 41.5352 57.1505C44.2247 57.1549 46.4686 54.79 46.448 51.9559C46.4317 49.0923 44.2055 46.6772 41.5751 46.6669Z" fill="white"/>
<path fill-rule="evenodd" clip-rule="evenodd" d="M54.5215 51.9502C54.5215 54.945 56.5869 57.1639 59.3295 57.1492C61.9969 57.1359 64.1847 54.765 64.1715 51.9059C64.1582 49.0467 61.9275 46.6552 59.2941 46.667C56.6002 46.6774 54.5171 48.9877 54.5215 51.9502Z" fill="white"/>
</svg>
