<svg width="358" height="131" viewBox="0 0 358 131" fill="none" xmlns="http://www.w3.org/2000/svg">
<path d="M9.64078 7.49912C10.6034 3.60747 10.4721 2.08591 10.1075 0.491211H41.7284C50.3774 0.491211 52.5944 3.81232 50.4795 12.093L46.1039 29.6494C44.0474 37.9447 40.1677 41.2512 31.5187 41.2512H-6.10352e-05C1.51724 39.1717 2.54903 36.7767 3.01905 34.2433L9.64078 7.49912ZM18.3919 34.5212H26.4576C28.9954 34.5212 29.5205 33.9506 30.206 31.2148L35.34 10.5568C36.0255 7.82098 35.7921 7.25039 33.2397 7.25039H25.247L18.3919 34.5212Z" fill="black"/>
<path d="M80.1741 34.5505C82.6482 34.6009 85.1133 34.235 87.4668 33.4678L84.0247 41.3096H48.247C49.7523 39.225 50.7784 36.8317 51.2516 34.3018L57.917 7.49912C58.8797 3.60747 58.763 2.08591 58.3983 0.491211H93.5926L92.9071 8.33306C90.7362 7.54029 88.4339 7.17273 86.1249 7.25039H73.4795L71.1021 16.8039H82.1577C84.6309 16.8403 87.0937 16.4747 89.4504 15.7213L87.2334 24.6458C85.0809 23.8604 82.799 23.493 80.5096 23.5632H69.4394L66.712 34.5212L80.1741 34.5505Z" fill="black"/>
<path d="M106.808 34.3018C105.831 38.1934 105.962 39.715 106.327 41.3097H88.285C89.8023 39.2302 90.8341 36.8352 91.3041 34.3018L97.955 7.52837C98.9177 3.63672 98.801 2.11521 98.4364 0.520508H133.616L132.872 8.36231C130.723 7.56333 128.439 7.1955 126.148 7.27968H113.518L111.14 16.8332H122.196C124.669 16.8716 127.132 16.506 129.488 15.7506L127.271 24.675C125.101 23.8809 122.798 23.5133 120.489 23.5924H109.434L106.808 34.3018Z" fill="black"/>
<path d="M159.038 34.5505C161.512 34.599 163.977 34.2331 166.331 33.4679L162.991 41.3097H127.111C128.628 39.2302 129.66 36.8352 130.13 34.3018L136.796 7.52837C137.758 3.63672 137.627 2.11521 137.262 0.520508H172.471L171.786 8.36231C169.614 7.57269 167.312 7.20528 165.004 7.27968H152.358L149.981 16.8332H161.036C163.51 16.8696 165.972 16.504 168.329 15.7506L166.098 24.675C163.95 23.888 161.673 23.5205 159.388 23.5924H148.333L145.605 34.5505H159.038Z" fill="black"/>
<path d="M183.686 7.49913H183.569L176.991 33.9506C175.839 38.5445 175.825 39.3785 176.685 41.2658H166.898C168.707 39.3638 169.101 38.5299 170.253 33.9506L176.744 7.82099C177.896 3.22709 177.91 2.40779 177.05 0.505859H198.84L207.095 33.8336H207.285L213.732 7.89413C214.869 3.30022 214.884 2.48093 214.038 0.578993H223.81C222.002 2.49556 221.608 3.31485 220.47 7.89413L212.142 41.3536H192.073L183.686 7.49913Z" fill="black"/>
<path d="M227.414 7.49912C228.391 3.60747 228.26 2.08591 227.895 0.491211H259.472C268.122 0.491211 270.338 3.81232 268.224 12.093L263.848 29.6494C261.792 37.9447 257.912 41.2512 249.263 41.2512H217.744C219.261 39.1717 220.293 36.7767 220.763 34.2433L227.414 7.49912ZM236.165 34.5212H244.231C246.769 34.5212 247.294 33.9506 247.979 31.2148L253.215 10.5861C253.901 7.85023 253.653 7.27968 251.115 7.27968H243.006L236.165 34.5212Z" fill="black"/>
<path d="M297.918 34.5505C300.393 34.6009 302.858 34.235 305.211 33.4679L301.871 41.3097H265.991C267.497 39.225 268.523 36.8317 268.996 34.3018L275.661 7.52837C276.624 3.63672 276.507 2.11521 276.128 0.520508H311.337L310.651 8.36231C308.481 7.56954 306.178 7.20203 303.869 7.27968H291.224L288.846 16.8332H299.887C302.361 16.8696 304.823 16.504 307.18 15.7506L304.963 24.675C302.811 23.8897 300.529 23.5223 298.239 23.5924H287.184L284.456 34.5505H297.918Z" fill="black"/>
<path d="M327.207 23.5924L324.552 34.3018C323.575 38.1934 323.706 39.715 324.071 41.3097H306.029C307.534 39.225 308.56 36.8317 309.034 34.3018L315.699 7.52837C316.662 3.63672 316.545 2.11521 315.787 0.520508H349.216C356.334 0.520508 359.222 2.68576 357.53 9.50347L355.663 17.0234C354.204 23.0219 351.17 23.3437 347.801 23.5924L350.47 35.0625C351.098 37.6814 351.331 39.7881 352.279 41.3097H334.893L331.976 23.5924H327.207ZM328.884 16.8332H337.635C339.604 16.8332 340.246 16.5114 340.742 14.5363L341.982 9.57665C342.463 7.58693 341.982 7.27968 340.013 7.27968H331.262L328.884 16.8332Z" fill="black"/>
<path d="M95.9994 59.451C97.3121 54.1549 99.9958 52.2383 103.963 52.2383H117.95C121.917 52.2383 123.668 54.1549 122.326 59.451L119.803 69.5606C118.49 74.8567 115.806 76.7586 111.824 76.7586H97.881C93.8992 76.7586 92.1635 74.8567 93.5054 69.5606L95.9994 59.451ZM102.417 71.1553C102.125 72.3549 102.636 72.7353 103.875 72.7353H107.916C109.141 72.7353 109.841 72.3549 110.147 71.1553L113.429 57.9002C113.735 56.7152 113.21 56.3348 111.97 56.3348H107.93C106.705 56.3348 106.005 56.7152 105.699 57.9002L102.417 71.1553Z" fill="black"/>
<path d="M132.157 72.5451C131.686 73.8982 131.585 75.3532 131.865 76.7586H121.014C121.928 75.5089 122.552 74.0689 122.837 72.5451L126.833 56.4518C127.294 55.0964 127.39 53.6427 127.11 52.2383H148.273L147.836 56.9492C146.544 56.474 145.171 56.2554 143.796 56.3055H136.182L134.724 62.0552H141.36C142.845 62.0759 144.323 61.8535 145.736 61.3968L144.408 66.7662C143.116 66.2902 141.745 66.0667 140.368 66.1078H133.717L132.157 72.5451Z" fill="black"/>
<path d="M187.99 52.2382L187.494 57.3003C187.049 56.9288 186.535 56.6496 185.981 56.4788C185.428 56.308 184.846 56.2491 184.27 56.3054H180.041L176 72.545C175.53 73.8981 175.429 75.3531 175.709 76.7585H164.857C165.772 75.5088 166.395 74.0688 166.68 72.545L170.706 56.3054H166.476C165.181 56.2468 163.898 56.5725 162.786 57.2417L164.814 52.1797L187.99 52.2382Z" fill="black"/>
<path d="M204.647 62.0552L206.105 56.4518C206.567 55.0964 206.662 53.6427 206.383 52.2383H217.234C216.331 53.4932 215.714 54.9315 215.425 56.4518L211.429 72.5451C210.958 73.8982 210.857 75.3532 211.137 76.7586H200.286C201.201 75.5089 201.824 74.0689 202.109 72.5451L203.699 66.1078H196.742L195.152 72.5451C194.681 73.8982 194.58 75.3532 194.86 76.7586H184.009C184.924 75.5089 185.547 74.0689 185.832 72.5451L189.828 56.4518C190.289 55.0964 190.385 53.6427 190.105 52.2383H200.957C200.054 53.4932 199.437 54.9315 199.148 56.4518L197.763 62.0552H204.647Z" fill="black"/>
<path d="M232.795 72.7065C234.28 72.732 235.759 72.5095 237.171 72.0482L235.158 76.7591H213.674C214.577 75.5042 215.194 74.0659 215.482 72.5456L219.479 56.4523C219.94 55.0969 220.035 53.6432 219.756 52.2388H240.919L240.511 56.9497C239.207 56.4768 237.826 56.2583 236.441 56.306H228.842L227.384 62.0557H234.02C235.504 62.073 236.982 61.8507 238.396 61.3973L237.054 66.7667C235.761 66.2907 234.39 66.0672 233.014 66.1083H226.363L224.729 72.7065H232.795Z" fill="black"/>
<path d="M38.5791 123.853C42.9547 123.853 43.3339 123.4 44.2236 119.771L49.8535 97.1383C51.0058 92.5591 51.0057 91.7251 50.1598 89.8232H59.9465C58.1233 91.7398 57.7296 92.5737 56.5919 97.1383L51.4142 117.986C49.0951 127.291 45.7259 130.612 36.8289 130.612H16.3074C8.35845 130.612 6.09774 126.531 8.19802 117.986L13.4633 96.8165C14.4259 92.9394 14.2946 91.4033 13.93 89.8086H31.9866C30.4723 91.8898 29.4408 94.2841 28.9674 96.8165L23.1333 120.02C22.477 122.697 23.3229 123.853 26.0504 123.853H38.5791Z" fill="black"/>
<path d="M70.0963 96.817H69.965L63.387 123.269C62.2348 127.862 62.2202 128.696 63.0808 130.584H53.294C55.1172 128.667 55.511 127.833 56.6486 123.269L63.1391 97.1389C64.2913 92.5596 64.3059 91.7257 63.4454 89.8237H85.2357L93.491 123.078H93.6806L100.069 97.1389C101.207 92.5596 101.221 91.7257 100.375 89.8237H110.279C108.455 91.7403 108.062 92.5742 106.924 97.1389L98.6104 130.613H78.4682L70.0963 96.817Z" fill="black"/>
<path d="M105.292 130.612C106.793 128.526 107.819 126.133 108.297 123.604L114.962 96.8165C115.925 92.9394 115.808 91.4033 115.429 89.8086H133.485C131.971 91.8898 130.939 94.2841 130.466 96.8165L123.801 123.604C122.838 127.481 122.969 129.018 123.334 130.612H105.292Z" fill="black"/>
<path d="M141.637 130.612L137.437 93.5685C137.323 92.1874 136.788 90.8748 135.905 89.8086H155.216C154.849 90.5226 154.555 91.2727 154.341 92.047C153.997 93.7906 153.997 95.585 154.341 97.3285L157.112 121.937L172.777 97.3285C173.914 95.718 174.785 93.9348 175.358 92.047C175.526 91.3131 175.605 90.5615 175.592 89.8086H186.079C183.747 91.9622 181.756 94.4583 180.171 97.2115L158.994 130.612H141.637Z" fill="black"/>
<path d="M209.035 123.853C211.509 123.893 213.972 123.527 216.328 122.771L212.973 130.612H177.108C178.61 128.526 179.636 126.133 180.113 123.604L186.778 96.8165C187.741 92.9394 187.624 91.4033 187.26 89.8086H222.454L221.783 97.6504C219.607 96.8596 217.3 96.4922 214.986 96.5678H202.341L199.963 106.136H211.019C213.492 106.165 215.953 105.799 218.312 105.053L216.095 113.978C213.942 113.192 211.66 112.825 209.371 112.895H198.315L195.588 123.853H209.035Z" fill="black"/>
<path d="M238.323 112.837L235.712 123.604C234.735 127.481 234.867 129.018 235.231 130.612H217.145C218.648 128.524 219.678 126.133 220.165 123.604L226.815 96.8165C227.793 92.9394 227.661 91.4033 226.903 89.8086H260.332C267.45 89.8086 270.338 91.9739 268.646 98.8062L266.779 106.326C265.321 112.31 262.287 112.632 258.918 112.895L261.587 124.365C262.214 126.969 262.447 129.076 263.41 130.612H246.053L243.136 112.895L238.323 112.837ZM240.001 106.077H248.752C250.721 106.077 251.362 105.756 251.858 103.78L253.098 98.8062C253.579 96.8311 253.098 96.5092 251.129 96.5092H242.378L240.001 106.077Z" fill="black"/>
<path d="M314.063 97.9142C312.234 96.93 310.171 96.4646 308.098 96.5682H293.673C291.266 96.5682 290.61 96.8901 290.245 98.3531L289.677 100.65C289.297 102.113 289.808 102.435 292.214 102.435H303.212C309.819 102.435 312.809 104.732 311.336 110.657L308.856 120.606C307.252 127.043 304.087 130.613 296.648 130.613H268.688L269.418 122.317C271.126 123.389 273.124 123.9 275.135 123.781H290.129C292.55 123.781 293.119 123.532 293.498 121.996L294.198 119.187C294.563 117.724 294.125 117.402 291.719 117.402H279.073C272.904 117.402 270.993 115.368 272.699 108.55L274.96 99.4357C276.55 93.0569 280.488 89.7358 285.957 89.7358H314.734L314.063 97.9142Z" fill="black"/>
<path d="M343.263 123.853C345.736 123.893 348.2 123.527 350.556 122.771L347.201 130.612H311.336C312.838 128.524 313.868 126.133 314.355 123.604L321.006 96.8165C321.969 92.9394 321.852 91.4033 321.487 89.8086H356.681L356.011 97.6504C353.839 96.8608 351.537 96.4934 349.228 96.5678H336.583L334.191 106.136H345.247C347.719 106.165 350.181 105.799 352.539 105.053L350.322 113.978C348.187 113.178 345.921 112.791 343.642 112.837H332.587L329.859 123.795L343.263 123.853Z" fill="black"/>
<path d="M356.975 129.589C356.509 130.054 355.917 130.371 355.272 130.498C354.627 130.626 353.959 130.559 353.352 130.306C352.745 130.054 352.226 129.626 351.861 129.078C351.497 128.53 351.302 127.885 351.302 127.226C351.302 126.567 351.497 125.922 351.861 125.374C352.226 124.826 352.745 124.398 353.352 124.145C353.959 123.892 354.627 123.826 355.272 123.953C355.917 124.081 356.509 124.398 356.975 124.863C357.291 125.167 357.541 125.533 357.71 125.938C357.878 126.343 357.96 126.779 357.952 127.219C357.96 127.66 357.877 128.098 357.709 128.505C357.541 128.913 357.291 129.282 356.975 129.589ZM352.599 125.2C352.33 125.461 352.118 125.775 351.975 126.123C351.832 126.47 351.761 126.843 351.768 127.219C351.761 127.599 351.831 127.976 351.974 128.328C352.117 128.68 352.33 129 352.599 129.267C353.142 129.79 353.866 130.082 354.619 130.082C355.372 130.082 356.096 129.79 356.639 129.267C356.909 129 357.121 128.68 357.264 128.328C357.407 127.976 357.477 127.599 357.47 127.219C357.442 126.666 357.258 126.132 356.94 125.68C356.621 125.228 356.181 124.875 355.671 124.664C355.161 124.453 354.602 124.391 354.058 124.485C353.514 124.58 353.008 124.828 352.599 125.2ZM354.553 125.375C354.889 125.357 355.226 125.402 355.545 125.507C355.728 125.581 355.881 125.712 355.984 125.881C356.086 126.049 356.132 126.247 356.114 126.443C356.124 126.583 356.098 126.723 356.036 126.849C355.974 126.975 355.881 127.082 355.764 127.16C355.6 127.26 355.415 127.32 355.224 127.336C355.35 127.345 355.471 127.383 355.58 127.446C355.688 127.51 355.781 127.597 355.852 127.701C355.976 127.866 356.048 128.065 356.056 128.272V128.799C356.05 128.862 356.05 128.926 356.056 128.989H355.458V128.579C355.48 128.421 355.46 128.26 355.398 128.113C355.336 127.967 355.236 127.839 355.108 127.745C354.882 127.651 354.637 127.611 354.393 127.628H353.883V129.091H353.255V125.419L354.553 125.375ZM355.239 125.96C354.997 125.851 354.732 125.801 354.466 125.814H353.912V127.145H354.495C354.703 127.156 354.911 127.126 355.108 127.058C355.206 127.017 355.292 126.952 355.359 126.87C355.426 126.788 355.472 126.69 355.492 126.586C355.512 126.482 355.506 126.374 355.475 126.272C355.443 126.171 355.387 126.079 355.312 126.004L355.239 125.96Z" fill="black"/>
</svg>
