<svg width="466" height="470" viewBox="0 0 466 470" fill="none" xmlns="http://www.w3.org/2000/svg">
<path opacity="0.6" d="M388.644 113.816C377.393 130.69 344.947 128.813 316.173 109.63C287.398 90.4459 273.188 61.2163 284.438 44.3416C295.688 27.4669 328.135 29.344 356.909 48.5277C385.683 67.7114 399.894 96.941 388.644 113.816ZM362.561 39.628C309.518 4.26422 250.005 0.338271 229.652 30.8663C209.299 61.3943 235.799 114.813 288.853 150.185C341.907 185.556 401.409 189.474 421.762 158.946C442.115 128.418 415.616 74.9994 362.561 39.628ZM361.105 42.6812C286.098 -7.32641 201.956 -12.8847 173.181 30.2764C144.405 73.4375 181.894 148.971 256.902 198.978C331.909 248.986 416.051 254.544 444.826 211.383C473.602 168.222 436.113 92.6888 361.105 42.6812ZM350.474 58.5776C258.775 -2.55808 155.898 -9.29759 120.679 43.5275C85.4608 96.3525 131.238 188.738 222.925 249.866C314.612 310.994 417.497 317.722 452.716 264.897C487.934 212.072 442.161 119.706 350.474 58.5776ZM331.909 86.4231C229.672 18.2445 114.983 10.7175 75.7362 69.5839C36.4898 128.45 87.5554 231.432 189.789 299.592C292.023 367.751 406.724 375.286 445.97 316.42C485.216 257.553 434.151 154.571 331.917 86.4116L331.909 86.4231ZM306.718 124.208C200.09 53.1018 80.651 44.9748 39.9372 106.042C-0.77661 167.11 52.6581 274.238 159.294 345.332C265.93 416.427 385.369 424.554 426.083 363.486C466.797 302.419 413.362 195.291 306.726 124.196L306.718 124.208ZM276.223 169.948C173.55 101.479 58.4939 93.7075 19.2475 152.574C-19.9989 211.44 31.422 314.659 134.091 383.109C236.761 451.559 351.817 459.331 391.063 400.464C430.31 341.598 378.889 238.379 276.219 169.929L276.223 169.948ZM243.076 219.666C150.941 158.24 47.701 151.275 12.4825 204.1C-22.7361 256.925 23.3964 349.548 115.531 410.974C207.665 472.4 310.905 479.365 346.124 426.54C381.342 373.715 335.21 281.093 243.076 219.666ZM209.133 270.577C133.599 220.218 49.0331 214.377 20.2575 257.538C-8.51807 300.699 29.3952 376.515 104.93 426.874C180.465 477.233 265.03 483.074 293.806 439.913C322.581 396.752 284.668 320.936 209.133 270.577ZM176.781 319.103C123.715 283.724 64.2021 279.798 43.849 310.326C23.496 340.854 50.0069 394.281 103.073 429.66C156.138 465.039 215.652 468.965 236.005 438.437C256.358 407.909 229.847 354.482 176.781 319.103ZM149.205 360.464C120.523 341.342 88.3705 339.197 77.3876 355.671C66.4048 372.144 80.7493 400.999 109.432 420.122C138.114 439.244 170.266 441.389 181.249 424.916C192.232 408.442 177.888 379.587 149.205 360.464Z" stroke="#FF2100" stroke-linecap="round" stroke-linejoin="round"/>
</svg>
