<svg width="1122" height="1700" viewBox="0 0 1122 1700" fill="none" xmlns="http://www.w3.org/2000/svg">
<path d="M379.353 572.155H739.265L1118.18 2H1M379.353 572.155L1 2M379.353 572.155L379.352 1127.92L4.39948 1698.06L1 2M224.323 2L451.335 572.155M447.647 2L523.317 572.155M670.97 2L595.3 572.155M894.294 2L667.282 572.155M747.779 559.324H370.838M757.144 545.212H361.489M767.47 529.636H351.146M778.951 512.337H339.665M791.779 493.016H326.853M806.179 471.313H312.437M822.488 446.719H296.129M841.12 418.658H277.512M862.575 386.325H256.057M887.558 348.67H231.058M917.304 304.246H201.585M952.63 251.049H166.276M995.364 186.219H123.253M1048.98 105.421H69.647M227.723 1698.06L454.734 1127.92M451.046 1698.06L526.717 1127.92M674.37 1698.06L598.699 1127.92M897.693 1698.06L670.682 1127.92M747.778 1140.75H370.934M757.303 1154.85H361.681M767.727 1170.42H351.387M779.304 1187.72H340.017M792.148 1207.04H327.366M806.789 1228.76H313.03M823.242 1253.34H296.787M842.034 1281.4H278.378M863.633 1313.73H257.163M888.826 1351.39H232.485M918.635 1395.81H203.205M954.249 1449.01H168.184M125.546 1513.85H997.737L997.736 183.229M1051.78 1594.64H72.3407M1118.18 341.211L739.264 691.775M1118.18 680.423L739.264 797.069M1118.18 1019.63L739.264 902.988M1118.18 1358.85L739.264 1008.89M753.471 1149.33V551.421M746.095 1138.12V561.87M759.532 1158.07V542.09M765.995 1167.78V531.92M772.922 1178.03V521.488M780.33 1189.33V510.349M788.316 1201.11V498.339M796.911 1213.99V485.311M806.195 1227.84V471.313M816.265 1242.95V456.396M827.217 1259.22V440.115M839.196 1277.08V421.78M852.312 1296.73V402.114M866.776 1318.35V380.494M882.763 1342.29V356.195M900.579 1368.87V329.366M920.511 1398.62V299.432M942.976 1432.17V265.621M968.488 1470.3V227.226M1031.57 1564.75V132.233M1071.18 1623.65V72.8259M1.57727 334.656L379.369 684.317M2.363 678.715L379.352 794.031M3.05251 1019.63L379.368 905.6M4.2712 1362.64L379.481 1015.63M372.682 1138.07V562.1M366.62 1147.29V552.966M360.158 1157.1V543.207M353.231 1167.65V532.792M345.823 1178.85V521.603M337.837 1191.02V509.577M329.242 1204.22V496.647M319.957 1218.25V482.633M309.887 1233.61V467.469M298.936 1250.27V450.974M286.957 1268.42V432.919M273.84 1288.37V413.121M259.376 1310.41V391.583M243.389 1334.7V367.252M225.574 1361.79V340.423M205.642 1392.05V310.621M183.177 1426.24V276.464M157.665 1465.09V238.415M128.416 1509.48V194.45M94.5819 1561.01V143.175M54.9747 1621.17V83.3241M1121 1698.06L739.264 1127.92H379.352L4.39931 1698.06H1121ZM1121 1698.06L739.263 1127.92V572.155L1118.18 2L1121 1698.06Z" stroke="white" stroke-opacity="0.8" stroke-miterlimit="10"/>
</svg>
