<svg width="1440" height="1568" viewBox="0 0 1440 1568" fill="none" xmlns="http://www.w3.org/2000/svg">
<path d="M66.9174 297.178L46.8207 519.728L-15.3707 535.661L-140 350.189L-87.1082 336.638L2.91901 477.709L14.3162 310.654L66.9174 297.178Z" fill="#6100FF"/>
<path d="M236.959 473.184C217.778 478.098 199.006 478.159 180.642 473.366C162.472 468.524 146.605 459.376 133.042 445.921C119.622 432.223 110.356 415.396 105.244 395.44C100.131 375.485 100.19 356.372 105.419 338.103C110.843 319.784 120.356 304.133 133.96 291.151C147.757 278.119 164.246 269.146 183.427 264.232C202.607 259.318 221.283 259.282 239.453 264.124C257.817 268.917 273.587 278.09 286.763 291.644C300.132 305.148 309.374 321.878 314.486 341.834C319.598 361.789 319.565 380.999 314.385 399.462C309.155 417.731 299.739 433.357 286.135 446.34C272.531 459.322 256.139 468.27 236.959 473.184ZM225.344 427.848C241.618 423.679 253.209 414.928 260.117 401.597C267.218 388.216 268.486 372.613 263.919 354.789C259.303 336.771 250.69 323.699 238.079 315.575C225.612 307.207 211.241 305.108 194.967 309.277C178.499 313.496 166.689 322.2 159.538 335.387C152.581 348.524 151.435 364.199 156.101 382.411C160.717 400.429 169.259 413.622 181.725 421.99C194.336 430.114 208.876 432.067 225.344 427.848Z" fill="#6100FF"/>
<path d="M408.282 386.245L473.38 369.568L483.208 407.929L368.415 437.338L316.149 233.327L365.844 220.595L408.282 386.245Z" fill="#6100FF"/>
<path d="M601.405 160.246L611.605 200.06L557.551 213.908L599.617 378.105L549.922 390.837L507.856 226.64L453.801 240.488L443.601 200.674L601.405 160.246Z" fill="#6100FF"/>
<path d="M782.652 331.213L720.492 265.071L708.577 268.123L728.307 345.136L678.612 357.868L626.345 153.856L709.752 132.488C725.832 128.368 740.211 127.678 752.888 130.418C765.758 133.108 776.268 138.674 784.418 147.115C792.518 155.363 798.107 165.493 801.184 177.505C804.659 191.067 803.886 204.169 798.867 216.81C794.041 229.401 784.739 239.836 770.963 248.114L838.74 316.844L782.652 331.213ZM699.568 232.959L730.373 225.067C739.479 222.734 745.689 218.769 749.003 213.171C752.512 207.524 753.223 200.631 751.139 192.494C749.153 184.744 745.265 179.237 739.473 175.972C733.876 172.658 726.524 172.167 717.418 174.5L686.613 182.392L699.568 232.959Z" fill="#6100FF"/>
<path d="M965.197 286.614C946.017 291.528 927.245 291.589 908.881 286.796C890.71 281.954 874.844 272.806 861.28 259.351C847.861 245.653 838.595 228.826 833.482 208.871C828.37 188.915 828.428 169.803 833.658 151.533C839.081 133.214 848.595 117.563 862.198 104.581C875.996 91.5492 892.485 82.5763 911.665 77.6624C930.846 72.7484 949.521 72.7125 967.691 77.5545C986.055 82.3469 1001.83 91.5202 1015 105.074C1028.37 118.579 1037.61 135.309 1042.72 155.264C1047.84 175.22 1047.8 194.429 1042.62 212.892C1037.39 231.162 1027.98 246.787 1014.37 259.77C1000.77 272.752 984.378 281.7 965.197 286.614ZM953.583 241.278C969.857 237.109 981.448 228.358 988.356 215.027C995.457 201.646 996.724 186.043 992.158 168.219C987.542 150.201 978.928 137.13 966.317 129.005C953.851 120.637 939.48 118.538 923.206 122.708C906.737 126.927 894.928 135.63 887.777 148.817C880.82 161.955 879.674 177.629 884.34 195.841C888.956 213.859 897.497 227.052 909.964 235.42C922.575 243.545 937.114 245.497 953.583 241.278Z" fill="#6100FF"/>
<path d="M1279.16 204.011L1229.46 216.743L1114.11 112.2L1146.35 238.036L1096.65 250.768L1044.39 46.7567L1094.08 34.0252L1209.59 139.149L1177.2 12.7315L1226.89 0L1279.16 204.011Z" fill="#6100FF"/>
<path d="M3.95152 530.091C25.457 524.582 45.342 524.03 63.6067 528.435C81.8713 532.839 97.3482 541.675 110.038 554.941C122.871 567.963 131.869 584.549 137.031 604.698C142.143 624.654 142.229 643.523 137.287 661.306C132.54 679.039 123.121 694.252 109.03 706.946C95.1338 719.591 77.5295 728.643 56.2178 734.103L-20.2138 753.684L-72.48 549.673L3.95152 530.091ZM42.002 691.911C60.795 687.096 74.1073 678.214 81.9387 665.266C89.7701 652.317 91.2785 636.446 86.4639 617.653C81.6492 598.86 72.6707 585.573 59.5282 577.791C46.3858 570.009 30.418 568.526 11.625 573.34L-11.9148 579.371L18.4622 697.942L42.002 691.911Z" fill="#6100FF"/>
<path d="M188.364 482.846L240.631 686.857L190.936 699.589L138.669 495.578L188.364 482.846Z" fill="#6100FF"/>
<path d="M350.981 660.754C336.063 664.576 322.075 665.579 309.015 663.763C295.956 661.948 284.626 657.211 275.026 649.554C265.619 641.848 259.009 631.36 255.197 618.091L308.089 604.541C310.799 611.898 314.904 617.04 320.402 619.967C325.851 622.7 332.16 623.149 339.328 621.312C346.69 619.426 352.081 616.29 355.499 611.905C358.868 607.325 359.783 602.033 358.245 596.026C356.954 590.989 354.143 587.27 349.812 584.87C345.675 582.42 340.814 580.775 335.231 579.935C329.841 579.044 322.246 578.409 312.445 578.03C298.229 577.336 286.434 576.023 277.06 574.088C267.687 572.154 258.98 567.985 250.939 561.58C242.898 555.175 237.239 545.579 233.963 532.792C229.099 513.805 232.18 497.222 243.205 483.042C254.182 468.668 270.713 458.652 292.8 452.994C315.274 447.236 334.779 448.02 351.314 455.345C367.8 462.477 378.984 475.509 384.866 494.441L331.103 508.215C329.028 501.727 325.291 497.214 319.891 494.674C314.443 491.941 308.231 491.468 301.256 493.255C295.25 494.793 290.828 497.681 287.991 501.918C285.104 505.961 284.43 510.985 285.969 516.991C287.656 523.578 292.072 527.918 299.214 530.011C306.357 532.104 317.062 533.594 331.328 534.481C345.645 535.562 357.392 537.094 366.572 539.078C375.945 541.013 384.628 545.085 392.619 551.296C400.61 557.507 406.17 566.716 409.297 578.921C412.275 590.546 411.977 601.874 408.403 612.906C405.023 623.889 398.434 633.629 388.636 642.126C378.839 650.624 366.287 656.833 350.981 660.754Z" fill="#6100FF"/>
<path d="M420.805 531.688C415.643 511.538 415.411 492.5 420.109 474.574C424.757 456.453 433.714 441.048 446.98 428.359C460.39 415.426 476.975 406.428 496.737 401.366C520.955 395.161 543.324 396.244 563.843 404.613C584.362 412.983 600.357 427.466 611.827 448.064L557.192 462.061C550.939 454.579 543.464 449.577 534.767 447.057C526.263 444.487 517.264 444.418 507.771 446.85C492.465 450.772 481.43 459.276 474.667 472.364C467.904 485.452 466.805 500.908 471.372 518.733C475.938 536.557 484.333 549.581 496.556 557.805C508.78 566.029 522.544 568.18 537.85 564.259C547.343 561.826 555.2 557.439 561.421 551.097C567.835 544.705 571.985 536.726 573.869 527.159L628.505 513.161C628.351 536.737 621.291 557.127 607.323 574.332C593.307 591.343 574.189 602.95 549.971 609.155C530.21 614.218 511.365 614.4 493.439 609.702C475.656 604.761 460.395 595.56 447.656 582.101C434.917 568.641 425.967 551.837 420.805 531.688Z" fill="#6100FF"/>
<path d="M773.812 552.428C754.631 557.342 735.859 557.403 717.495 552.61C699.325 547.768 683.458 538.62 669.894 525.165C656.475 511.467 647.209 494.64 642.097 474.684C636.984 454.729 637.043 435.616 642.272 417.347C647.695 399.028 657.209 383.377 670.813 370.395C684.61 357.363 701.099 348.39 720.28 343.476C739.46 338.562 758.136 338.526 776.306 343.368C794.67 348.161 810.44 357.334 823.616 370.888C836.985 384.392 846.227 401.122 851.339 421.078C856.451 441.033 856.418 460.243 851.238 478.706C846.008 496.975 836.592 512.601 822.988 525.584C809.384 538.566 792.992 547.514 773.812 552.428ZM762.197 507.092C778.471 502.923 790.062 494.172 796.97 480.841C804.071 467.46 805.339 451.857 800.772 434.033C796.156 416.015 787.542 402.943 774.932 394.819C762.465 386.451 748.094 384.352 731.82 388.521C715.352 392.74 703.542 401.444 696.391 414.631C689.434 427.768 688.288 443.443 692.954 461.655C697.57 479.673 706.112 492.866 718.578 501.234C731.189 509.358 745.729 511.311 762.197 507.092Z" fill="#6100FF"/>
<path d="M1009.31 489.928L947.148 423.785L935.233 426.838L954.963 503.85L905.268 516.582L853.002 312.571L936.408 291.202C952.489 287.083 966.867 286.393 979.544 289.132C992.414 291.822 1002.92 297.388 1011.07 305.83C1019.17 314.077 1024.76 324.207 1027.84 336.219C1031.32 349.781 1030.54 362.883 1025.52 375.524C1020.7 388.116 1011.4 398.551 997.619 406.829L1065.4 475.558L1009.31 489.928ZM926.224 391.673L957.029 383.781C966.135 381.448 972.345 377.483 975.66 371.885C979.168 366.238 979.88 359.346 977.795 351.208C975.81 343.459 971.921 337.951 966.13 334.687C960.532 331.372 953.18 330.881 944.074 333.214L913.269 341.106L926.224 391.673Z" fill="#6100FF"/>
<path d="M1119.01 244.42C1140.52 238.911 1160.4 238.358 1178.67 242.763C1196.93 247.168 1212.41 256.003 1225.1 269.269C1237.93 282.292 1246.93 298.878 1252.09 319.027C1257.21 338.982 1257.29 357.852 1252.35 375.634C1247.6 393.367 1238.18 408.581 1224.09 421.275C1210.2 433.919 1192.59 442.971 1171.28 448.431L1094.85 468.013L1042.58 264.001L1119.01 244.42ZM1157.06 406.239C1175.86 401.425 1189.17 392.543 1197 379.594C1204.83 366.646 1206.34 350.775 1201.53 331.982C1196.71 313.189 1187.73 299.901 1174.59 292.12C1161.45 284.338 1145.48 282.854 1126.69 287.669L1103.15 293.7L1133.52 412.27L1157.06 406.239Z" fill="#6100FF"/>
<path d="M1332.95 298.003C1327.79 277.853 1327.55 258.815 1332.25 240.889C1336.9 222.768 1345.86 207.363 1359.12 194.674C1372.53 181.741 1389.12 172.744 1408.88 167.681C1433.1 161.476 1455.47 162.559 1475.99 170.928C1496.5 179.298 1512.5 193.781 1523.97 214.379L1469.33 228.376C1463.08 220.894 1455.61 215.892 1446.91 213.372C1438.41 210.802 1429.41 210.733 1419.91 213.166C1404.61 217.087 1393.57 225.591 1386.81 238.679C1380.05 251.767 1378.95 267.224 1383.51 285.048C1388.08 302.872 1396.48 315.896 1408.7 324.12C1420.92 332.344 1434.69 334.495 1449.99 330.574C1459.49 328.142 1467.34 323.754 1473.56 317.412C1479.98 311.02 1484.13 303.041 1486.01 293.474L1540.65 279.477C1540.49 303.052 1533.43 323.442 1519.47 340.647C1505.45 357.658 1486.33 369.266 1462.11 375.47C1442.35 380.533 1423.51 380.715 1405.58 376.017C1387.8 371.076 1372.54 361.876 1359.8 348.416C1347.06 334.956 1338.11 318.152 1332.95 298.003Z" fill="#6100FF"/>
<path d="M-2.7318 856.977C-7.89391 836.828 -8.12598 817.79 -3.42802 799.863C1.22029 781.742 10.1774 766.337 23.4432 753.648C36.8531 740.715 53.439 731.718 73.2008 726.655C97.4186 720.45 119.787 721.533 140.306 729.902C160.825 738.272 176.82 752.755 188.291 773.353L133.655 787.35C127.403 779.868 119.928 774.867 111.23 772.346C102.726 769.776 93.7277 769.708 84.2343 772.14C68.9286 776.061 57.894 784.565 51.1306 797.654C44.3671 810.742 43.2686 826.198 47.8351 844.022C52.4016 861.846 60.7965 874.87 73.0199 883.094C85.2432 891.318 99.0078 893.469 114.313 889.548C123.807 887.116 131.664 882.728 137.884 876.386C144.299 869.994 148.448 862.015 150.333 852.448L204.968 838.451C204.815 862.026 197.754 882.417 183.787 899.621C169.77 916.632 150.653 928.24 126.435 934.444C106.673 939.507 87.8289 939.689 69.9021 934.991C52.1194 930.05 36.8586 920.85 24.1197 907.39C11.3808 893.931 2.43031 877.126 -2.7318 856.977Z" fill="#6100FF"/>
<path d="M350.275 877.717C331.095 882.631 312.322 882.692 293.958 877.899C275.788 873.057 259.922 863.909 246.358 850.454C232.939 836.756 223.673 819.929 218.56 799.974C213.448 780.018 213.506 760.906 218.736 742.636C224.159 724.317 233.673 708.667 247.276 695.684C261.074 682.652 277.563 673.679 296.743 668.766C315.924 663.852 334.599 663.816 352.769 668.658C371.133 673.45 386.903 682.623 400.079 696.177C413.449 709.682 422.69 726.412 427.802 746.367C432.915 766.323 432.881 785.532 427.701 803.995C422.472 822.265 413.055 837.891 399.451 850.873C385.848 863.855 369.456 872.803 350.275 877.717ZM338.66 832.381C354.935 828.212 366.526 819.462 373.433 806.13C380.535 792.749 381.802 777.146 377.236 759.322C372.619 741.304 364.006 728.233 351.395 720.108C338.928 711.741 324.558 709.641 308.283 713.811C291.815 718.03 280.006 726.733 272.855 739.92C265.898 753.058 264.752 768.732 269.418 786.944C274.034 804.962 282.575 818.155 295.042 826.523C307.653 834.648 322.192 836.6 338.66 832.381Z" fill="#6100FF"/>
<path d="M660.504 578.669L712.77 782.681L663.075 795.412L631.73 673.064L617.448 807.101L577.344 817.376L500.007 706.5L531.427 829.14L481.731 841.871L429.465 637.86L488.169 622.82L581.605 749.392L602.09 593.635L660.504 578.669Z" fill="#6100FF"/>
<path d="M927.278 510.324L979.545 714.335L929.85 727.066L898.505 604.718L884.223 738.755L844.118 749.03L766.782 638.154L798.201 760.794L748.506 773.525L696.24 569.514L754.944 554.474L848.38 681.046L868.865 525.289L927.278 510.324Z" fill="#6100FF"/>
<path d="M1011.84 488.66L1043.11 610.718C1046.24 622.924 1051.65 631.551 1059.34 636.599C1067.03 641.648 1076.69 642.683 1088.32 639.705C1099.94 636.727 1108.01 631.15 1112.52 622.974C1117.03 614.799 1117.73 604.608 1114.6 592.402L1083.33 470.344L1133.02 457.613L1164.22 579.38C1168.89 597.592 1168.96 613.987 1164.43 628.566C1159.91 643.145 1151.88 655.318 1140.34 665.087C1129 674.806 1115.29 681.726 1099.21 685.846C1083.13 689.965 1067.9 690.563 1053.52 687.639C1039.29 684.472 1026.88 677.535 1016.29 666.828C1005.66 655.927 998.005 641.371 993.339 623.159L962.143 501.391L1011.84 488.66Z" fill="#6100FF"/>
<path d="M1402.69 605.927L1353 618.659L1237.64 514.116L1269.88 639.952L1220.19 652.684L1167.92 448.673L1217.62 435.941L1333.12 541.065L1300.73 414.647L1350.43 401.916L1402.69 605.927Z" fill="#6100FF"/>
<path d="M1497.73 364.178L1550 568.189L1500.3 580.921L1448.03 376.909L1497.73 364.178Z" fill="#6100FF"/>
<path d="M81.4498 943.801L133.716 1147.81L84.021 1160.54L31.7547 956.533L81.4498 943.801Z" fill="#6100FF"/>
<path d="M264.223 896.976L274.424 936.79L220.369 950.638L262.436 1114.84L212.74 1127.57L170.674 963.37L116.62 977.218L106.42 937.404L264.223 896.976Z" fill="#6100FF"/>
<path d="M464.114 845.765L428.488 1000.45L445.761 1067.87L396.066 1080.6L378.793 1013.18L273.18 894.681L329.559 880.237L390.972 955.552L408.316 860.06L464.114 845.765Z" fill="#6100FF"/>
<path d="M692.482 787.259L702.682 827.073L648.628 840.921L690.694 1005.12L640.999 1017.85L598.933 853.653L544.879 867.501L534.679 827.687L692.482 787.259Z" fill="#6100FF"/>
<path d="M767.118 768.138L819.384 972.149L769.689 984.88L717.423 780.869L767.118 768.138Z" fill="#6100FF"/>
<path d="M820.762 862.785C815.6 842.636 815.368 823.598 820.066 805.671C824.714 787.551 833.671 772.146 846.937 759.457C860.347 746.524 876.933 737.526 896.695 732.464C920.913 726.259 943.281 727.342 963.8 735.711C984.319 744.08 1000.31 758.564 1011.78 779.162L957.149 793.159C950.897 785.677 943.422 780.675 934.724 778.155C926.22 775.585 917.222 775.516 907.728 777.948C892.423 781.869 881.388 790.374 874.625 803.462C867.861 816.55 866.763 832.006 871.329 849.831C875.896 867.655 884.291 880.679 896.514 888.903C908.737 897.126 922.502 899.278 937.807 895.356C947.301 892.924 955.158 888.537 961.379 882.195C967.793 875.803 971.942 867.823 973.827 858.256L1028.46 844.259C1028.31 867.835 1021.25 888.225 1007.28 905.43C993.264 922.441 974.147 934.048 949.929 940.253C930.167 945.316 911.323 945.498 893.396 940.8C875.614 935.859 860.353 926.658 847.614 913.199C834.875 899.739 825.924 882.935 820.762 862.785Z" fill="#6100FF"/>
<path d="M1195.04 875.907L1103.38 803.388L1126.46 893.478L1076.76 906.21L1024.5 702.199L1074.19 689.467L1097.12 778.976L1142.2 672.045L1200.61 657.08L1147.18 777.303L1255.78 860.347L1195.04 875.907Z" fill="#6100FF"/>
<path d="M1287.03 677.368L1297.6 718.635L1364.15 701.585L1373.98 739.946L1307.43 756.996L1318.89 801.75L1394.16 782.467L1404.36 822.281L1279.4 854.296L1227.13 650.285L1352.1 618.27L1362.3 658.084L1287.03 677.368Z" fill="#6100FF"/>
<path d="M1531.12 572.405L1541.32 612.22L1487.27 626.068L1529.33 790.265L1479.64 802.997L1437.57 638.799L1383.52 652.648L1373.32 612.834L1531.12 572.405Z" fill="#6100FF"/>
<path d="M275.387 1110.9L255.29 1333.45L193.099 1349.38L68.4695 1163.91L121.361 1150.36L211.389 1291.43L222.786 1124.37L275.387 1110.9Z" fill="#6100FF"/>
<path d="M445.428 1286.9C426.248 1291.82 407.475 1291.88 389.112 1287.09C370.941 1282.24 355.075 1273.1 341.511 1259.64C328.092 1245.94 318.826 1229.12 313.713 1209.16C308.601 1189.2 308.659 1170.09 313.889 1151.82C319.312 1133.5 328.826 1117.85 342.429 1104.87C356.227 1091.84 372.716 1082.87 391.896 1077.95C411.077 1073.04 429.752 1073 447.922 1077.84C466.286 1082.64 482.056 1091.81 495.232 1105.36C508.602 1118.87 517.843 1135.6 522.956 1155.55C528.068 1175.51 528.034 1194.72 522.854 1213.18C517.625 1231.45 508.208 1247.08 494.605 1260.06C481.001 1273.04 464.609 1281.99 445.428 1286.9ZM433.813 1241.57C450.088 1237.4 461.679 1228.65 468.586 1215.32C475.688 1201.94 476.955 1186.33 472.389 1168.51C467.773 1150.49 459.159 1137.42 446.548 1129.3C434.081 1120.93 419.711 1118.83 403.436 1123C386.968 1127.22 375.159 1135.92 368.008 1149.11C361.051 1162.24 359.905 1177.92 364.571 1196.13C369.187 1214.15 377.728 1227.34 390.195 1235.71C402.806 1243.83 417.345 1245.79 433.813 1241.57Z" fill="#6100FF"/>
<path d="M616.752 1199.97L681.849 1183.29L691.677 1221.65L576.885 1251.06L524.618 1047.05L574.313 1034.32L616.752 1199.97Z" fill="#6100FF"/>
<path d="M809.874 973.966L820.075 1013.78L766.02 1027.63L808.086 1191.83L758.391 1204.56L716.325 1040.36L662.271 1054.21L652.071 1014.39L809.874 973.966Z" fill="#6100FF"/>
<path d="M991.121 1144.93L928.961 1078.79L917.046 1081.84L936.776 1158.86L887.081 1171.59L834.815 967.576L918.221 946.208C934.302 942.088 948.681 941.398 961.357 944.138C974.227 946.828 984.738 952.394 992.887 960.835C1000.99 969.083 1006.58 979.213 1009.65 991.225C1013.13 1004.79 1012.36 1017.89 1007.34 1030.53C1002.51 1043.12 993.209 1053.56 979.432 1061.83L1047.21 1130.56L991.121 1144.93ZM908.037 1046.68L938.842 1038.79C947.948 1036.45 954.159 1032.49 957.473 1026.89C960.981 1021.24 961.693 1014.35 959.608 1006.21C957.623 998.464 953.734 992.957 947.943 989.692C942.345 986.378 934.994 985.887 925.888 988.22L895.082 996.112L908.037 1046.68Z" fill="#6100FF"/>
<path d="M1173.67 1100.33C1154.49 1105.25 1135.71 1105.31 1117.35 1100.52C1099.18 1095.67 1083.31 1086.53 1069.75 1073.07C1056.33 1059.37 1047.06 1042.55 1041.95 1022.59C1036.84 1002.64 1036.9 983.523 1042.13 965.253C1047.55 946.934 1057.06 931.284 1070.67 918.301C1084.47 905.269 1100.95 896.296 1120.13 891.382C1139.32 886.469 1157.99 886.433 1176.16 891.275C1194.52 896.067 1210.29 905.24 1223.47 918.794C1236.84 932.299 1246.08 949.029 1251.19 968.984C1256.31 988.94 1256.27 1008.15 1251.09 1026.61C1245.86 1044.88 1236.45 1060.51 1222.84 1073.49C1209.24 1086.47 1192.85 1095.42 1173.67 1100.33ZM1162.05 1055C1178.33 1050.83 1189.92 1042.08 1196.83 1028.75C1203.93 1015.37 1205.19 999.763 1200.63 981.939C1196.01 963.921 1187.4 950.85 1174.79 942.725C1162.32 934.357 1147.95 932.258 1131.68 936.428C1115.21 940.647 1103.4 949.35 1096.25 962.537C1089.29 975.675 1088.14 991.349 1092.81 1009.56C1097.43 1027.58 1105.97 1040.77 1118.43 1049.14C1131.04 1057.26 1145.58 1059.22 1162.05 1055Z" fill="#6100FF"/>
<path d="M1487.63 1017.73L1437.93 1030.46L1322.58 925.921L1354.82 1051.76L1305.12 1064.49L1252.86 860.477L1302.55 847.745L1418.05 952.869L1385.67 826.452L1435.36 813.72L1487.63 1017.73Z" fill="#6100FF"/>
<path d="M212.421 1343.81C233.927 1338.3 253.812 1337.75 272.076 1342.15C290.341 1346.56 305.818 1355.39 318.507 1368.66C331.34 1381.68 340.338 1398.27 345.5 1418.42C350.613 1438.37 350.698 1457.24 345.757 1475.03C341.009 1492.76 331.59 1507.97 317.5 1520.67C303.603 1533.31 285.999 1542.36 264.687 1547.82L188.256 1567.4L135.99 1363.39L212.421 1343.81ZM250.471 1505.63C269.265 1500.82 282.577 1491.93 290.408 1478.99C298.24 1466.04 299.748 1450.17 294.933 1431.37C290.119 1412.58 281.14 1399.29 267.998 1391.51C254.855 1383.73 238.888 1382.25 220.094 1387.06L196.555 1393.09L226.932 1511.66L250.471 1505.63Z" fill="#6100FF"/>
<path d="M396.834 1296.57L449.1 1500.58L399.405 1513.31L347.139 1309.3L396.834 1296.57Z" fill="#6100FF"/>
<path d="M559.451 1474.47C544.533 1478.3 530.544 1479.3 517.485 1477.48C504.426 1475.67 493.096 1470.93 483.495 1463.27C474.088 1455.57 467.479 1445.08 463.666 1431.81L516.558 1418.26C519.269 1425.62 523.373 1430.76 528.872 1433.69C534.321 1436.42 540.629 1436.87 547.798 1435.03C555.16 1433.15 560.55 1430.01 563.969 1425.62C567.338 1421.05 568.253 1415.75 566.714 1409.75C565.424 1404.71 562.613 1400.99 558.282 1398.59C554.144 1396.14 549.284 1394.5 543.701 1393.65C538.311 1392.76 530.716 1392.13 520.915 1391.75C506.698 1391.06 494.903 1389.74 485.53 1387.81C476.156 1385.87 467.449 1381.7 459.408 1375.3C451.367 1368.9 445.709 1359.3 442.433 1346.51C437.568 1327.53 440.649 1310.94 451.675 1296.76C462.651 1282.39 479.182 1272.37 501.269 1266.71C523.743 1260.96 543.248 1261.74 559.783 1269.07C576.269 1276.2 587.453 1289.23 593.336 1308.16L539.572 1321.94C537.497 1315.45 533.76 1310.93 528.361 1308.39C522.912 1305.66 516.7 1305.19 509.726 1306.97C503.72 1308.51 499.298 1311.4 496.461 1315.64C493.574 1319.68 492.899 1324.71 494.438 1330.71C496.126 1337.3 500.541 1341.64 507.684 1343.73C514.827 1345.82 525.531 1347.31 539.798 1348.2C554.114 1349.28 565.862 1350.81 575.041 1352.8C584.415 1354.73 593.097 1358.81 601.089 1365.02C609.08 1371.23 614.639 1380.44 617.766 1392.64C620.744 1404.27 620.447 1415.59 616.873 1426.63C613.493 1437.61 606.904 1447.35 597.106 1455.85C587.308 1464.34 574.757 1470.55 559.451 1474.47Z" fill="#6100FF"/>
<path d="M629.274 1345.41C624.112 1325.26 623.88 1306.22 628.578 1288.29C633.226 1270.17 642.183 1254.77 655.449 1242.08C668.859 1229.15 685.445 1220.15 705.207 1215.09C729.425 1208.88 751.793 1209.96 772.312 1218.33C792.831 1226.7 808.826 1241.19 820.297 1261.78L765.661 1275.78C759.409 1268.3 751.934 1263.3 743.236 1260.78C734.732 1258.21 725.734 1258.14 716.24 1260.57C700.935 1264.49 689.9 1273 683.137 1286.08C676.373 1299.17 675.275 1314.63 679.841 1332.45C684.408 1350.28 692.802 1363.3 705.026 1371.52C717.249 1379.75 731.014 1381.9 746.32 1377.98C755.813 1375.55 763.67 1371.16 769.891 1364.82C776.305 1358.43 780.454 1350.45 782.339 1340.88L836.974 1326.88C836.821 1350.46 829.76 1370.85 815.793 1388.05C801.776 1405.06 782.659 1416.67 758.441 1422.88C738.679 1427.94 719.835 1428.12 701.908 1423.42C684.126 1418.48 668.865 1409.28 656.126 1395.82C643.387 1382.36 634.436 1365.56 629.274 1345.41Z" fill="#6100FF"/>
<path d="M982.281 1366.15C963.101 1371.06 944.328 1371.12 925.964 1366.33C907.794 1361.49 891.927 1352.34 878.364 1338.89C864.945 1325.19 855.679 1308.36 850.566 1288.4C845.454 1268.45 845.512 1249.34 850.742 1231.07C856.165 1212.75 865.679 1197.1 879.282 1184.11C893.08 1171.08 909.569 1162.11 928.749 1157.2C947.93 1152.28 966.605 1152.25 984.775 1157.09C1003.14 1161.88 1018.91 1171.05 1032.09 1184.61C1045.45 1198.11 1054.7 1214.84 1059.81 1234.8C1064.92 1254.75 1064.89 1273.96 1059.71 1292.43C1054.48 1310.7 1045.06 1326.32 1031.46 1339.3C1017.85 1352.29 1001.46 1361.23 982.281 1366.15ZM970.667 1320.81C986.941 1316.64 998.532 1307.89 1005.44 1294.56C1012.54 1281.18 1013.81 1265.58 1009.24 1247.75C1004.63 1229.73 996.012 1216.66 983.401 1208.54C970.935 1200.17 956.564 1198.07 940.29 1202.24C923.821 1206.46 912.012 1215.16 904.861 1228.35C897.904 1241.49 896.758 1257.16 901.424 1275.38C906.04 1293.39 914.581 1306.59 927.048 1314.95C939.659 1323.08 954.198 1325.03 970.667 1320.81Z" fill="#6100FF"/>
<path d="M1217.78 1303.65L1155.62 1237.51L1143.7 1240.56L1163.43 1317.57L1113.74 1330.3L1061.47 1126.29L1144.88 1104.92C1160.96 1100.8 1175.34 1100.11 1188.01 1102.85C1200.88 1105.54 1211.39 1111.11 1219.54 1119.55C1227.64 1127.8 1233.23 1137.93 1236.31 1149.94C1239.78 1163.5 1239.01 1176.6 1233.99 1189.24C1229.17 1201.84 1219.87 1212.27 1206.09 1220.55L1273.87 1289.28L1217.78 1303.65ZM1134.69 1205.39L1165.5 1197.5C1174.6 1195.17 1180.81 1191.2 1184.13 1185.61C1187.64 1179.96 1188.35 1173.07 1186.26 1164.93C1184.28 1157.18 1180.39 1151.67 1174.6 1148.41C1169 1145.09 1161.65 1144.6 1152.54 1146.93L1121.74 1154.83L1134.69 1205.39Z" fill="#6100FF"/>
<path d="M1327.48 1058.14C1348.99 1052.63 1368.87 1052.08 1387.14 1056.48C1405.4 1060.89 1420.88 1069.72 1433.57 1082.99C1446.4 1096.01 1455.4 1112.6 1460.56 1132.75C1465.67 1152.7 1465.76 1171.57 1460.82 1189.35C1456.07 1207.09 1446.65 1222.3 1432.56 1234.99C1418.67 1247.64 1401.06 1256.69 1379.75 1262.15L1303.32 1281.73L1251.05 1077.72L1327.48 1058.14ZM1365.53 1219.96C1384.33 1215.14 1397.64 1206.26 1405.47 1193.31C1413.3 1180.37 1414.81 1164.49 1410 1145.7C1405.18 1126.91 1396.2 1113.62 1383.06 1105.84C1369.92 1098.06 1353.95 1096.57 1335.16 1101.39L1311.62 1107.42L1341.99 1225.99L1365.53 1219.96Z" fill="#6100FF"/>
</svg>
