<svg width="579" height="660" viewBox="0 0 579 660" fill="none" xmlns="http://www.w3.org/2000/svg">
<path d="M344.654 228.686C344.316 228.859 341.572 228.702 331.944 231.318M301.984 222.325C334.088 239.714 344.269 223.317 313.173 238.863C260.055 267.019 220.38 334.576 222.655 395.644C224.685 430.294 233.931 413.378 202.739 394.223C118.128 348.336 -24.4993 423.929 15.2557 495.735C36.7143 577.675 91.2574 627.505 176.244 624.755C309.903 616.131 424.651 486.553 477.849 362.356C565.712 147.489 481.252 -36.2887 302.285 7.50946C289.122 11.1126 287.242 7.43228 272.017 15.2079C213.984 50.6041 232.089 179.441 301.968 222.316M346.147 228.013C321.053 225.289 303.798 211.348 289.243 190.596C242.102 116.623 272.052 3.22535 344.282 0.938854M392.253 27.3593C445.852 59.667 466.114 116.349 469.78 178.046C481.469 374.307 286.983 620.026 116.077 584.329C69.8171 574.663 26.5925 537.359 8.45245 468.191C-9.42161 399.913 7.11587 318.37 33.9374 252.756M33.9374 252.756C99.8089 91.6501 269.599 -40.3629 392.277 27.3943M33.9374 252.756C34.7747 229.299 238.507 311.089 244.67 338.242M357.412 49.8043C404.559 78.2144 422.567 128.079 425.819 182.769C436.214 357.09 263.822 572.527 113.709 541.267C72.6732 532.713 34.6323 499.44 18.7472 438.776C2.95145 378.444 17.5764 306.438 41.2185 248.655C98.6791 108.191 248.205 -10.5431 357.395 49.7949M329.89 84.0884C369.529 108.034 384.78 149.776 387.545 196.161C396.214 341.868 251.889 524.85 124.52 498.286C89.8453 491.048 57.8803 463.034 44.4901 411.921C31.2647 361.421 43.2973 300.915 63.4315 251.683C112.324 132.094 238.438 33.667 329.907 84.0978M313.96 125.064C346.345 144.627 358.64 178.78 360.856 216.219C362.977 251.873 353.129 300.124 324.788 350.111C255.488 472.278 113.058 511.09 81.7914 391.739C71.0196 350.637 80.8301 301.478 97.1937 261.4C136.948 164.088 239.594 84.0757 313.951 125.081M223.006 35.6141C180.029 69.7121 214.355 186.763 284.5 229.402C296.533 236.717 311.428 240.948 325.881 237.658C329.823 236.754 333.432 234.664 336.814 232.443M336.814 232.443C263.955 271.023 219.877 365.926 230.121 432.2M336.814 232.443C339.351 231.161 344.128 228.772 348.536 227.099M177.588 64.1934C164.322 75.4359 166.41 94.6132 170.249 111.471C185.386 177.629 275.048 272.691 314.665 246.363M134.362 101.759C100.92 129.727 254.06 287.974 293.606 264.655M95.0505 146.905C75.1546 159.359 247.853 294.901 274.45 286.662M61.1335 197.89C47.0425 189.755 248.878 306.285 257.921 311.505M14.496 309.374C21.996 266.428 235.612 319.928 235.19 365.835M3.54328 365.572C6.6467 348.463 24.2988 340.682 40.8173 335.578C105.68 315.609 232.838 345.727 229.845 393.199M1.50884 419.221C4.62578 398.226 20.6381 385.563 39.3178 375.478C105.715 339.655 232.377 359.085 228.881 419.351M116.073 629.7C100.13 620.084 92.5422 613.433 81.7345 602.197C13.5596 559.895 54.2914 449.306 144.222 418.722C156.983 414.39 170.162 413.045 183.582 413.57C195.879 414.052 207.206 417.866 217.808 423.534M336.983 212.168C290.974 128.1 412.216 11.6785 496.899 57.0669C507.028 62.5041 514.695 71.0826 520.758 80.6385C567.765 133.211 576.268 204.449 568.721 274.206C547.263 472.545 357.29 689.641 189.403 654.563C110.143 651.255 86.8725 533.688 146.905 461.988C155.485 451.739 165.928 444.035 177.404 437.88C188.16 432.109 199.846 429.902 211.423 429.644M346.375 216.033C354.474 133.922 518.046 94.1463 563.387 163.512C566.072 167.636 567.594 172.234 568.894 176.769C570.388 181.979 570.229 187.878 570.149 191.054C610.252 362.544 475.182 592.068 309.711 642.145C290.322 653.983 272.617 651.957 252.528 641.051C190.884 607.645 160.424 478.163 219.466 435.845M355.634 623.675C338.445 634.966 321.087 630.352 303.32 620.635C243.092 587.7 193.887 464.892 241.826 426.847M401.053 595.096C386.592 604.697 368.787 597.445 353.563 589.023C294.243 556.202 227.612 443.705 263.95 412.933M444.246 557.512C405.709 580.245 250.704 423.279 285.002 394.616M483.558 512.366C457.566 520.457 283.882 385.383 304.158 372.608M517.458 461.371C512.085 458.269 316.645 345.432 320.671 347.756M544.654 406.506C538.665 379.951 334.847 297.073 333.921 321.02M564.096 349.888C564.515 305.147 351.076 249.392 343.402 293.427M575.058 293.673C576.142 276.349 560.959 264.555 546.054 255.582C487.97 220.62 357.229 219.164 348.749 266.02M577.092 240.024C578.276 219.492 565.6 206.767 548.302 196.239C489.666 160.547 358.708 179.338 349.73 239.878M345.808 224.551C326.76 188.748 348.462 147.709 378.55 120.789C429.414 78.6155 512.984 64.7101 546.417 117.663M234.287 658.288C208.997 657.29 191.441 644.472 176.202 624.752C123.792 550.008 156.806 434.379 226.055 431.107M226.56 431.095C198.468 432.026 173 414.316 165.88 374.911C154.605 302.289 213.223 210.656 280.77 196.085C311.457 190.359 334.199 202.818 345.798 224.567M32.1845 541.582C21.2422 521.207 22.2913 502.22 30.6691 480.586C65.7353 402.041 186.24 370.164 229.769 429.661M229.573 428.012C228.564 426.499 226.326 418.828 225.504 415.715M228.927 432.656C184.137 408.635 132.961 435.902 102.899 478.148C71.9598 525.251 65.5598 589.723 108.9 624.953C145.805 651.234 208.47 663.301 290.582 626.84C545.054 506.737 646.181 86.2044 432.341 16.4855C414.022 11.2504 427.891 16.2084 413.897 9.81613C333.086 -21.0962 260.23 99.8826 304.208 187.882C312.292 202.26 320.146 211.638 334.858 220.76M228.945 432.624C216.131 424.901 208.525 412.919 203.907 398.574C177.868 309.383 282.009 189.253 348.322 225.895M348.308 225.844C304.881 198.825 303.251 140.876 324.692 93.9547C352.445 38.7619 411.39 2.16182 462.535 29.5712M311.976 166.48C338.056 182.229 347.942 209.758 349.753 239.913C351.465 268.627 343.484 307.531 320.688 347.765C265.099 445.885 150.202 477.647 124.944 381.294C116.278 348.241 124.162 308.567 137.355 276.305C169.162 198.495 251.755 133.269 311.976 166.48Z" stroke="#FF2100" stroke-opacity="0.5" stroke-width="1.5" stroke-linecap="round" stroke-linejoin="round"/>
</svg>
