<svg width="387" height="380" viewBox="0 0 387 380" fill="none" xmlns="http://www.w3.org/2000/svg">
<g opacity="0.7">
<path d="M140.472 112.633C140.472 113.957 140.23 115.417 139.737 116.979C138.455 121.053 135.636 125.365 131.797 129.126C127.958 132.887 123.557 135.649 119.399 136.905C115.171 138.18 111.69 137.754 109.596 135.702C107.501 133.649 107.062 130.239 108.367 126.097C109.649 122.023 112.468 117.711 116.307 113.95C124.277 106.141 134.238 103.191 138.508 107.375C139.814 108.653 140.472 110.453 140.472 112.63V112.633ZM108.256 130.447C108.256 132.457 108.856 134.11 110.038 135.271C111.964 137.158 115.221 137.527 119.214 136.324C123.276 135.098 127.585 132.389 131.354 128.696C135.12 125.007 137.885 120.782 139.14 116.802C140.372 112.89 139.991 109.698 138.066 107.812C134.042 103.866 124.477 106.816 116.754 114.387C112.988 118.077 110.223 122.302 108.972 126.282C108.498 127.787 108.263 129.187 108.263 130.447H108.256Z" fill="url(#paint0_linear_265_4781)"/>
<path d="M174.899 97.0951C174.899 111.238 165.543 130.055 149.144 146.121C137.708 157.325 124.589 165.549 112.21 169.276C99.7617 173.022 89.5312 171.781 83.4013 165.779C77.2753 159.777 76.0085 149.754 79.832 137.554C83.6362 125.426 92.0301 112.573 103.466 101.369C114.902 90.1653 128.02 81.9414 140.399 78.2143C152.848 74.4683 163.078 75.7094 169.208 81.7113C173.07 85.495 174.903 90.8367 174.903 97.0951H174.899ZM78.2879 150.38C78.2879 156.605 80.1554 161.735 83.8441 165.345C89.8007 171.181 99.8079 172.37 112.025 168.691C124.312 164.994 137.334 156.824 148.701 145.691C172.111 122.755 181.114 94.2469 168.765 82.1489C162.809 76.313 152.801 75.1247 140.584 78.8028C128.297 82.4997 115.275 90.6707 103.909 101.803C92.5422 112.939 84.206 125.697 80.4326 137.735C79.004 142.296 78.2918 146.547 78.2918 150.38H78.2879Z" fill="url(#paint1_linear_265_4781)"/>
<path d="M209.264 84.8008C209.264 107.658 194.101 138.116 167.537 164.142C129.264 201.639 81.5953 215.952 61.2766 196.045C40.9578 176.138 55.5663 129.436 93.8396 91.9382C132.113 54.4406 179.781 40.1281 200.1 60.035C206.314 66.1237 209.264 74.7247 209.264 84.8008ZM52.7132 171.249C52.7132 181.167 55.6087 189.624 61.7194 195.611C81.7916 215.277 129.063 200.964 167.094 163.708C205.121 126.448 219.729 80.1381 199.657 60.4688C179.585 40.8033 132.313 55.1158 94.2825 92.372C67.83 118.288 52.7093 148.585 52.7093 171.245L52.7132 171.249Z" fill="url(#paint2_linear_265_4781)"/>
<path d="M242.605 75.9961C242.605 106.734 222.209 147.694 186.481 182.702C135.009 233.131 70.9067 252.386 43.5879 225.624C16.2691 198.859 35.9217 136.056 87.3981 85.627C112.31 61.2196 140.873 43.3083 167.826 35.1863C194.848 27.0455 217.031 29.7164 230.291 42.7085C238.647 50.8946 242.609 62.457 242.609 75.9999L242.605 75.9961ZM31.8673 192.299C31.8673 205.691 35.7754 217.103 44.0269 225.187C71.0993 251.711 134.805 232.456 186.035 182.264C221.647 147.374 242.001 106.568 242.004 76.0262C242.004 62.6342 238.096 51.2228 229.841 43.1385C216.753 30.3162 194.79 27.6981 168.003 35.771C141.146 43.8628 112.676 61.7214 87.8333 86.0609C52.2207 120.952 31.8634 161.758 31.8634 192.299H31.8673Z" fill="url(#paint3_linear_265_4781)"/>
<path d="M274.54 70.7221C274.54 81.0962 272.627 92.5756 268.761 104.893C258.603 137.267 236.194 171.57 205.656 201.488C175.119 231.407 140.103 253.363 107.058 263.314C73.9485 273.285 46.7645 270.01 30.5195 254.095C14.2745 238.179 10.9323 211.549 21.109 179.107C31.2665 146.732 53.676 112.43 84.2137 82.5108C114.751 52.592 149.767 30.6367 182.812 20.6851C215.921 10.7146 243.106 13.9891 259.35 29.9048C269.427 39.7772 274.54 53.7727 274.54 70.7221ZM16.0226 213.266C16.0226 229.714 20.828 243.732 30.9623 253.665C64.1992 286.228 142.367 262.628 205.21 201.058C248.885 158.268 273.843 108.216 273.847 70.741C273.847 54.2933 269.042 40.2752 258.908 30.3425C225.671 -2.22087 147.503 21.3792 84.6603 82.9485C40.9849 125.743 16.0226 175.791 16.0226 213.266Z" fill="url(#paint4_linear_265_4781)"/>
<path d="M303.627 69.1529C303.627 81.0813 301.443 94.262 297.035 108.401C285.379 145.77 259.578 185.343 224.373 219.83C189.173 254.317 148.778 279.6 110.639 291.019C72.4315 302.457 41.0389 298.616 22.245 280.207C4.47138 262.794 -0.0143871 233.961 9.61553 199.018C9.66174 198.855 9.83116 198.757 10.0006 198.803C10.17 198.848 10.2624 199.018 10.2201 199.18C0.651763 233.897 5.07976 262.522 22.6878 279.773C41.3084 298.017 72.4777 301.8 110.454 290.434C148.501 279.045 188.799 253.819 223.93 219.4C259.062 184.981 284.809 145.499 296.434 108.224C308.035 71.0165 304.173 40.479 285.553 22.2357C267.945 4.98453 238.731 0.646226 203.292 10.0206C203.127 10.0659 202.953 9.96779 202.907 9.80558C202.865 9.64337 202.961 9.47361 203.127 9.42834C238.789 -0.00642369 268.222 4.38844 285.995 21.8018C297.689 33.2586 303.627 49.5025 303.627 69.1567V69.1529Z" fill="url(#paint5_linear_265_4781)"/>
<path d="M329.844 71.122C329.844 84.2839 327.434 98.834 322.567 114.437C309.703 155.688 281.217 199.376 242.358 237.447C203.5 275.518 158.908 303.426 116.804 316.03C74.63 328.652 39.9838 324.412 19.2416 304.094C7.72878 292.814 1.26776 277.438 0.0394685 258.391C0.0240668 258.229 0.158836 258.074 0.332105 258.067C0.505374 258.056 0.655535 258.184 0.663236 258.354C1.88382 277.246 8.28325 292.49 19.6844 303.66C40.2534 323.812 74.68 327.996 116.619 315.441C158.627 302.868 203.127 275.016 241.916 237.013C280.705 199.01 309.133 155.416 321.966 114.256C334.78 73.1629 330.506 39.4339 309.941 19.2855C298.54 8.11546 282.984 1.84569 263.698 0.64984C263.524 0.638523 263.382 0.487679 263.405 0.325466C263.417 0.155708 263.567 0.0274429 263.736 0.0387601C283.177 1.24215 298.871 7.57218 310.384 18.8516C323.291 31.4967 329.844 49.4269 329.844 71.122Z" fill="url(#paint6_linear_265_4781)"/>
<path d="M386.938 118.688C385.471 169.253 349.508 236.232 295.314 289.329C240.765 342.772 172.323 378.006 120.951 379.093C120.778 379.093 120.635 378.961 120.631 378.791C120.631 378.651 120.766 378.482 120.939 378.478C172.158 377.395 240.434 342.229 294.871 288.891C348.958 235.9 384.852 169.083 386.311 118.665C386.315 118.496 386.461 118.364 386.634 118.367C386.804 118.371 386.938 118.507 386.938 118.673V118.688Z" fill="url(#paint7_linear_265_4781)"/>
<path d="M374.748 187.938C374.748 187.976 374.74 188.014 374.725 188.051C359.704 224.983 333.49 262.899 300.908 294.818C269.131 325.951 231.531 351.249 195.033 366.052C194.871 366.116 194.69 366.041 194.625 365.886C194.559 365.727 194.636 365.55 194.794 365.486C231.219 350.713 268.746 325.465 300.465 294.388C332.986 262.526 359.15 224.681 374.139 187.829C374.205 187.67 374.386 187.595 374.548 187.659C374.671 187.708 374.744 187.821 374.744 187.946L374.748 187.938Z" fill="url(#paint8_linear_265_4781)"/>
<path d="M381.155 98.8493C381.155 119.496 375.934 142.956 365.68 167.473C349.354 206.51 321.897 245.588 286.281 280.483C250.664 315.377 210.777 342.278 170.933 358.273C132.294 373.785 96.208 377.543 69.3282 368.855C69.1626 368.802 69.0702 368.628 69.128 368.466C69.1819 368.304 69.359 368.217 69.5245 368.27C125.429 386.336 214.382 350.057 285.838 280.045C357.298 210.037 394.324 122.887 375.888 68.1156C375.834 67.9534 375.922 67.7799 376.088 67.7271C376.254 67.6743 376.431 67.761 376.485 67.9232C379.611 77.2033 381.155 87.6114 381.155 98.8456V98.8493Z" fill="url(#paint9_linear_265_4781)"/>
<path d="M369.492 86.355C369.492 101.275 366.681 117.79 361.017 135.475C346.713 180.129 315.775 227.318 273.897 268.347C232.02 309.375 183.855 339.686 138.278 353.701C92.7116 367.712 54.758 363.901 31.4167 342.972C31.2896 342.859 31.2819 342.663 31.3975 342.538C31.513 342.414 31.7132 342.406 31.8402 342.519C55.0121 363.294 92.7463 367.059 138.093 353.116C183.578 339.132 231.651 308.874 273.455 267.913C315.263 226.952 346.147 179.854 360.42 135.294C374.652 90.8667 370.809 53.8973 349.605 31.195C349.489 31.0705 349.497 30.8743 349.624 30.7611C349.751 30.648 349.951 30.6555 350.067 30.78C362.966 44.5907 369.496 63.6187 369.496 86.355H369.492Z" fill="url(#paint10_linear_265_4781)"/>
<path d="M352.246 76.7392C352.246 90.7839 349.647 106.33 344.399 123.023C330.633 166.813 300.288 213.224 258.962 253.717C217.631 294.21 170.259 323.937 125.564 337.423C80.8023 350.932 44.0692 346.537 22.1372 325.05C14.0551 317.131 8.29101 307.221 4.99889 295.591C4.95269 295.425 5.05283 295.259 5.21839 295.214C5.38396 295.168 5.55723 295.263 5.60344 295.429C8.86475 306.953 14.5749 316.777 22.58 324.616C44.3387 345.934 80.8485 350.276 125.375 336.838C169.974 323.378 217.258 293.709 258.515 253.284C299.772 212.862 330.06 166.537 343.798 122.842C357.513 79.2139 353.085 43.4478 331.323 22.1262C323.487 14.4494 313.711 8.91906 302.26 5.68989C302.094 5.64462 301.994 5.47109 302.044 5.30888C302.09 5.14666 302.267 5.05233 302.433 5.0976C313.984 8.35695 323.853 13.9401 331.765 21.6886C345.35 34.9976 352.242 53.8747 352.242 76.7355L352.246 76.7392Z" fill="url(#paint11_linear_265_4781)"/>
<path d="M387 121.419C387 132.246 385.914 143.529 383.712 155.175C374.305 204.933 345.689 255.298 303.134 296.99C260.579 338.683 209.172 366.719 158.385 375.935C107.555 385.159 63.4253 374.43 34.1274 345.722C4.82565 317.018 -6.12496 273.783 3.28934 223.983C12.6959 174.225 41.3123 123.86 83.8673 82.1676C126.422 40.4751 177.829 12.4386 228.616 3.22267C279.446 -6.00084 323.576 4.72789 352.874 33.4358C375.322 55.4289 387 85.9551 387 121.419ZM0.624825 257.739C0.624827 293.044 12.2377 323.416 34.5664 345.292C63.7141 373.849 107.648 384.521 158.269 375.336C208.933 366.142 260.221 338.166 302.687 296.56C345.154 254.955 373.708 204.706 383.092 155.069C392.468 105.473 381.579 62.4342 352.427 33.8734C323.279 5.31635 279.346 -5.35572 228.724 3.83007C178.06 13.0234 126.773 40.9994 84.3062 82.6052C41.8398 124.211 13.285 174.463 3.90154 224.096C1.7068 235.7 0.624825 246.953 0.624825 257.739Z" fill="url(#paint12_linear_265_4781)"/>
<path d="M303.233 296.768C303.233 296.847 303.203 296.926 303.141 296.987C303.018 297.107 302.821 297.107 302.698 296.987L123.572 121.51C123.449 121.389 123.449 121.197 123.572 121.076C123.696 120.956 123.892 120.956 124.015 121.076L303.141 296.553C303.203 296.613 303.233 296.693 303.233 296.772V296.768Z" fill="url(#paint13_linear_265_4781)"/>
<path d="M281.582 316.181C281.582 316.26 281.552 316.336 281.49 316.396C281.459 316.426 280.712 317.128 278.775 317.052C273.747 316.852 260.925 311.492 231.565 277.868C195.756 236.862 171.01 199.15 159.12 181.027C157.495 178.553 156.139 176.485 155.053 174.867C144.469 159.106 128.786 130.964 124.589 123.37C135.824 172.358 168.861 249.964 205.714 297.27C219.883 315.46 232.466 327.143 243.109 331.991C251.576 335.85 256.308 334.115 257.948 333.191C258.099 333.108 258.291 333.157 258.376 333.304C258.461 333.451 258.411 333.64 258.26 333.723C254.194 336.012 238.357 340.181 205.217 297.643C167.771 249.576 134.261 170.265 123.495 121.359C123.461 121.208 123.545 121.057 123.692 121.005C123.838 120.952 124.004 121.012 124.077 121.148C124.269 121.499 143.344 156.307 155.581 174.531C156.667 176.15 158.026 178.221 159.651 180.699C171.533 198.81 196.265 236.497 232.047 277.472C261.094 310.737 273.743 316.166 278.695 316.437C280.412 316.532 281.051 315.966 281.059 315.962C281.182 315.849 281.382 315.853 281.502 315.973C281.559 316.034 281.59 316.109 281.59 316.188L281.582 316.181Z" fill="url(#paint14_linear_265_4781)"/>
<path d="M234.619 347.99C234.619 348.092 234.569 348.19 234.476 348.246C234.245 348.393 228.666 351.838 218.928 349.355C210.011 347.081 195.783 339.125 178.641 314.14C147.229 268.351 124.547 189.051 123.48 121.295C123.492 121.107 123.615 120.986 123.788 120.982C123.961 120.982 124.104 121.114 124.108 121.284C125.17 188.93 147.811 268.094 179.165 313.793C196.165 338.574 210.226 346.477 219.025 348.741C228.516 351.181 234.084 347.763 234.137 347.726C234.284 347.635 234.476 347.673 234.573 347.816C234.607 347.869 234.623 347.926 234.623 347.982L234.619 347.99Z" fill="url(#paint15_linear_265_4781)"/>
<path d="M207.254 361.133C207.254 361.253 207.181 361.367 207.061 361.416C206.992 361.446 199.95 364.256 189.692 361.434C180.262 358.839 166.081 350.823 152.054 327.355C138.751 305.094 128.49 272.342 123.164 235.131C117.72 197.09 117.835 156.642 123.488 121.246C123.515 121.08 123.676 120.963 123.846 120.989C124.019 121.016 124.135 121.174 124.108 121.34C112.564 193.601 124.547 280.113 152.597 327.045C166.501 350.31 180.509 358.258 189.815 360.831C199.876 363.615 206.753 360.88 206.823 360.85C206.984 360.786 207.165 360.857 207.235 361.016C207.25 361.053 207.258 361.095 207.258 361.133H207.254Z" fill="url(#paint16_linear_265_4781)"/>
<path d="M181.129 370.326C181.129 370.454 181.048 370.575 180.917 370.617C180.798 370.658 168.961 374.479 154.699 367.485C138.855 359.714 126.341 342.225 117.5 315.502C104.979 277.646 105.26 234.482 107.701 204.937C110.674 168.948 118.066 137.335 123.492 121.197C123.546 121.035 123.723 120.948 123.888 121.001C124.054 121.054 124.142 121.227 124.089 121.389C114.917 148.671 94.1283 242.857 118.097 315.313C126.884 341.875 139.29 359.243 154.977 366.935C169.004 373.815 180.594 370.073 180.709 370.032C180.871 369.975 181.052 370.062 181.106 370.224C181.117 370.258 181.121 370.292 181.121 370.322L181.129 370.326Z" fill="url(#paint17_linear_265_4781)"/>
<path d="M152.328 376.683C152.328 376.83 152.22 376.962 152.066 376.984C151.962 377.003 141.504 378.599 129.387 372.457C118.232 366.803 103.331 353.241 95.6956 320.745C88.2797 289.189 88.58 250.334 96.5619 208.373C105.164 163.15 119.36 130.19 123.503 121.167C123.573 121.012 123.761 120.944 123.919 121.012C124.077 121.08 124.15 121.265 124.077 121.42C107.012 158.566 79.2465 248.006 96.3078 320.61C103.885 352.849 118.617 366.293 129.641 371.895C141.577 377.958 151.862 376.396 151.966 376.381C152.135 376.354 152.297 376.467 152.328 376.633C152.328 376.649 152.331 376.667 152.331 376.683H152.328Z" fill="url(#paint18_linear_265_4781)"/>
<path d="M124.108 121.291C124.108 121.34 124.096 121.389 124.069 121.435C83.9052 194.597 65.8544 267.97 74.541 322.749C79.0922 351.445 91.6176 365.071 101.321 371.447C111.832 378.354 121.397 378.486 121.489 378.49C121.663 378.49 121.801 378.629 121.801 378.795C121.801 378.965 121.659 379.101 121.485 379.101C121.389 379.101 111.667 378.972 101.001 371.978C91.1787 365.535 78.5069 351.781 73.9172 322.843C65.2076 267.94 83.2853 194.423 123.511 121.144C123.592 120.993 123.784 120.941 123.934 121.02C124.038 121.076 124.1 121.182 124.1 121.291H124.108Z" fill="url(#paint19_linear_265_4781)"/>
<path d="M124.108 121.291C124.108 121.352 124.092 121.412 124.054 121.465C66.4705 204.85 50.5683 279.313 54.8808 321.198C57.4259 345.911 67.2406 359.258 75.0301 366.101C83.4471 373.503 91.3443 375.095 91.4213 375.11C91.5907 375.144 91.7025 375.302 91.6678 375.472C91.6331 375.638 91.4676 375.747 91.2982 375.713C91.2173 375.698 83.1545 374.072 74.6104 366.558C66.7401 359.639 56.8253 346.164 54.257 321.259C51.6965 296.417 56.1822 265.529 67.2252 231.924C79.227 195.4 98.6987 157.084 123.538 121.114C123.634 120.975 123.83 120.937 123.973 121.031C124.061 121.092 124.112 121.186 124.112 121.288L124.108 121.291Z" fill="url(#paint20_linear_265_4781)"/>
<path d="M124.108 121.291C124.108 121.359 124.085 121.431 124.035 121.488C90.2432 161.117 47.6228 229.254 38.7206 290.857C31.1545 343.184 53.9991 360.378 61.1802 364.404C61.3304 364.487 61.3842 364.675 61.2957 364.822C61.211 364.969 61.0185 365.022 60.8683 364.935C53.5987 360.865 30.4807 343.482 38.1007 290.77C47.0221 229.039 89.7118 160.785 123.553 121.091C123.665 120.959 123.861 120.944 123.996 121.054C124.069 121.114 124.108 121.201 124.108 121.291Z" fill="url(#paint21_linear_265_4781)"/>
<path d="M124.108 121.291C124.108 121.371 124.077 121.446 124.019 121.506C73.1395 172.709 36.2485 232.856 25.3364 282.399C20.0536 306.376 23.4689 322.79 27.2616 332.338C31.37 342.674 36.7952 347.413 36.8491 347.458C36.9801 347.571 36.9916 347.763 36.88 347.892C36.7645 348.02 36.5681 348.031 36.4372 347.922C36.3833 347.873 30.8617 343.063 26.6956 332.602C22.8605 322.971 19.4067 306.422 24.7241 282.271C35.6632 232.619 72.6158 172.358 123.572 121.08C123.692 120.959 123.892 120.956 124.015 121.073C124.077 121.133 124.111 121.212 124.111 121.291L124.108 121.291Z" fill="url(#paint22_linear_265_4781)"/>
<path d="M124.108 121.291C124.108 121.378 124.073 121.461 124 121.521C77.4943 161.584 43.9455 203.341 24.289 245.633C3.26183 290.872 13.6349 316.464 17.3121 323.231C17.3929 323.382 17.3352 323.567 17.1812 323.646C17.0271 323.726 16.8385 323.669 16.7576 323.518C13.042 316.69 2.56877 290.872 23.7192 245.377C43.4141 203.005 77.013 161.177 123.588 121.057C123.719 120.944 123.915 120.959 124.03 121.084C124.084 121.14 124.108 121.216 124.108 121.288L124.108 121.291Z" fill="url(#paint23_linear_265_4781)"/>
<path d="M124.108 121.291C124.108 121.389 124.058 121.488 123.969 121.548C123.457 121.884 72.2385 155.794 33.8882 208.188C-1.45873 256.483 3.93185 288.62 5.37191 294.569C5.41042 294.735 5.30647 294.901 5.1409 294.939C4.97148 294.976 4.80207 294.874 4.76356 294.712C3.31195 288.714 -2.12488 256.339 33.3838 207.83C71.7995 155.345 123.11 121.374 123.626 121.039C123.769 120.944 123.965 120.982 124.061 121.122C124.096 121.174 124.115 121.235 124.115 121.291L124.108 121.291Z" fill="url(#paint24_linear_265_4781)"/>
<path d="M124.108 121.291C124.108 121.393 124.054 121.495 123.958 121.552C7.0431 192.318 0.786201 251.756 0.786202 263.552C0.786202 263.628 0.786202 263.703 0.786202 263.775C0.786202 263.944 0.647564 264.08 0.474295 264.08C0.301025 264.08 0.15858 263.944 0.15858 263.775C0.0623188 252.45 5.67241 192.42 123.626 121.023C123.773 120.933 123.965 120.978 124.058 121.121C124.088 121.171 124.104 121.227 124.104 121.284L124.108 121.291Z" fill="url(#paint25_linear_265_4781)"/>
<path d="M124.108 121.291C124.108 121.408 124.042 121.518 123.927 121.57C65.9471 148.309 36.0292 176.945 21.1435 196.26C5.04098 217.155 2.59212 231.894 2.56902 232.041C2.54206 232.207 2.38417 232.324 2.2109 232.298C2.03764 232.271 1.91825 232.12 1.94905 231.947C1.97216 231.8 4.44415 216.906 20.6429 195.887C35.571 176.519 65.562 147.804 123.657 121.012C123.815 120.94 124 121.005 124.073 121.159C124.092 121.201 124.104 121.246 124.104 121.291L124.108 121.291Z" fill="url(#paint26_linear_265_4781)"/>
<path d="M124.108 121.291C124.108 121.42 124.027 121.537 123.896 121.582C72.1501 139.131 43.68 160.325 28.9059 175.014C12.9266 190.9 9.11854 202.768 9.08389 202.885C9.03383 203.047 8.8567 203.137 8.69114 203.088C8.52557 203.039 8.43319 202.87 8.48324 202.704C8.52175 202.583 12.3722 190.572 28.4593 174.58C43.2796 159.845 71.8305 138.588 123.692 121.001C123.854 120.944 124.035 121.031 124.092 121.19C124.104 121.224 124.108 121.257 124.108 121.291Z" fill="url(#paint27_linear_265_4781)"/>
<path d="M124.108 121.291C124.108 121.435 124.004 121.563 123.853 121.593C77.9987 130.481 51.7157 145.246 37.7463 156.069C22.618 167.786 18.267 177.53 18.2246 177.628C18.1553 177.783 17.9743 177.858 17.8126 177.79C17.6548 177.722 17.5777 177.545 17.647 177.387C17.6894 177.289 22.0789 167.435 37.3074 155.624C51.3345 144.748 77.7138 129.907 123.734 120.989C123.904 120.955 124.069 121.065 124.104 121.231C124.108 121.25 124.111 121.272 124.111 121.291L124.108 121.291Z" fill="url(#paint28_linear_265_4781)"/>
<path d="M124.108 121.291C124.108 121.454 123.977 121.589 123.807 121.597C82.7272 123.291 59.3127 132.039 46.9067 139.082C33.4764 146.702 29.703 154.017 29.6683 154.089C29.5913 154.24 29.4026 154.304 29.2486 154.228C29.0946 154.153 29.0291 153.968 29.1061 153.817C29.2563 153.515 32.9681 146.299 46.5293 138.588C58.997 131.496 82.523 122.684 123.788 120.982C123.961 120.975 124.108 121.106 124.115 121.276V121.288L124.108 121.291Z" fill="url(#paint29_linear_265_4781)"/>
<path d="M124.108 121.291C124.108 121.291 124.108 121.322 124.108 121.337C124.081 121.503 123.923 121.62 123.75 121.593C89.2381 116.444 69.3122 119.3 58.6735 122.604C47.1684 126.177 43.7685 131.024 43.7338 131.069C43.6375 131.209 43.4412 131.251 43.2987 131.156C43.1562 131.062 43.1139 130.873 43.2101 130.73C43.3488 130.526 46.7179 125.694 58.3847 122.05C69.0889 118.707 89.1303 115.806 123.842 120.986C123.996 121.008 124.108 121.14 124.108 121.288L124.108 121.291Z" fill="url(#paint30_linear_265_4781)"/>
<path d="M124.108 121.291C124.108 121.329 124.1 121.371 124.084 121.408C124.019 121.567 123.834 121.639 123.672 121.574C69.4738 99.3738 59.3087 110.076 59.2125 110.186C59.1008 110.314 58.9044 110.329 58.7697 110.223C58.6387 110.114 58.6195 109.921 58.7312 109.793C59.1278 109.325 69.1119 98.559 123.915 121.009C124.034 121.058 124.108 121.171 124.108 121.291Z" fill="url(#paint31_linear_265_4781)"/>
<path d="M124.108 121.291C124.108 121.359 124.085 121.423 124.042 121.48C123.935 121.612 123.738 121.635 123.6 121.529C81.7185 89.0713 76.8785 90.2973 76.5897 90.4256C76.4857 90.5237 76.324 90.5425 76.197 90.4595C76.0545 90.3652 76.016 90.1728 76.1123 90.0333C76.1585 89.9654 76.2817 89.8446 76.5704 89.8031C77.9604 89.5918 85.4919 91.2178 123.988 121.05C124.065 121.11 124.108 121.201 124.108 121.291Z" fill="url(#paint32_linear_265_4781)"/>
<path d="M341.958 247.508C341.958 250.187 341.222 251.993 340.618 253.023C340.533 253.17 340.34 253.22 340.19 253.137C340.04 253.05 339.99 252.865 340.075 252.718C341.018 251.111 342.789 246.478 338.85 238.183C333.902 227.756 321.978 215.431 303.411 201.545C255.126 165.44 175.912 133.076 125.914 122.065C133.669 126.18 162.389 141.545 178.476 151.916C180.128 152.979 182.238 154.311 184.764 155.899C203.261 167.548 241.75 191.794 283.608 226.877C317.931 255.645 323.398 268.207 323.603 273.13C323.683 275.028 322.963 275.763 322.933 275.79C322.809 275.91 322.613 275.91 322.49 275.79C322.37 275.669 322.367 275.477 322.49 275.356C322.49 275.356 323.079 274.73 322.971 273.043C322.694 268.192 317.153 255.8 283.2 227.337C241.377 192.28 202.911 168.054 184.425 156.409C181.899 154.817 179.781 153.485 178.129 152.421C159.528 140.432 124 121.744 123.642 121.555C123.503 121.484 123.442 121.321 123.496 121.178C123.55 121.035 123.704 120.952 123.858 120.982C173.775 131.526 254.726 164.357 303.792 201.047C335.955 225.096 341.958 239.85 341.958 247.497V247.508Z" fill="url(#paint33_linear_265_4781)"/>
<path d="M357.49 221.169C357.49 226.556 355.553 229.563 355.441 229.729C355.349 229.872 355.153 229.91 355.006 229.819C354.86 229.729 354.818 229.536 354.914 229.393C354.949 229.34 358.441 223.885 355.95 214.586C353.639 205.967 345.573 192.19 320.279 175.535C273.635 144.82 192.834 122.638 123.788 121.593C123.615 121.593 123.488 121.48 123.48 121.28C123.48 121.11 123.626 120.974 123.8 120.978C192.957 122.023 273.897 144.246 320.633 175.022C346.135 191.816 354.255 205.755 356.577 214.492C357.247 217.005 357.494 219.238 357.494 221.165L357.49 221.169Z" fill="url(#paint34_linear_265_4781)"/>
<path d="M370.185 194.725C370.185 199.75 368.903 202.828 368.883 202.873C368.818 203.028 368.633 203.103 368.471 203.039C368.314 202.975 368.237 202.794 368.302 202.639C368.329 202.571 371.121 195.838 368.283 185.977C365.657 176.859 357.54 163.135 333.798 149.513C285.895 122.031 197.597 110.291 123.838 121.601C123.669 121.627 123.507 121.514 123.48 121.344C123.457 121.174 123.573 121.02 123.742 120.993C159.871 115.455 201.151 115.342 239.983 120.676C277.963 125.894 311.397 135.947 334.114 148.981C358.068 162.724 366.254 176.617 368.899 185.856C369.861 189.21 370.181 192.212 370.181 194.725H370.185Z" fill="url(#paint35_linear_265_4781)"/>
<path d="M379.376 168.944C379.376 173.992 378.298 177.198 378.274 177.259C378.217 177.421 378.039 177.504 377.878 177.451C377.712 177.394 377.628 177.221 377.681 177.062C377.72 176.949 381.536 165.572 374.509 151.833C366.65 136.471 348.926 124.321 321.827 115.716C247.872 92.2326 151.738 112.6 123.892 121.586C123.726 121.638 123.549 121.552 123.495 121.389C123.438 121.227 123.53 121.054 123.696 121.001C140.168 115.686 172.438 108.443 209.167 105.53C239.324 103.139 283.381 102.863 322.02 115.131C349.292 123.793 367.147 136.053 375.079 151.572C378.478 158.227 379.376 164.35 379.376 168.941V168.944Z" fill="url(#paint36_linear_265_4781)"/>
<path d="M384.978 145.623C384.978 147.717 384.782 148.958 384.774 148.992C384.747 149.158 384.585 149.271 384.412 149.245C384.243 149.218 384.123 149.06 384.154 148.89C384.169 148.788 385.767 138.712 379.576 127.018C373.858 116.218 360.135 101.784 327.229 94.3603C253.124 77.6448 161.834 104.848 123.919 121.567C123.761 121.635 123.576 121.567 123.503 121.412C123.43 121.257 123.503 121.076 123.661 121.005C132.871 116.942 166.516 103.037 212.671 94.6092C255.496 86.7891 295.159 86.4948 327.368 93.7604C360.535 101.241 374.378 115.84 380.15 126.769C384.258 134.548 384.974 141.632 384.974 145.616L384.978 145.623Z" fill="url(#paint37_linear_265_4781)"/>
<path d="M386.938 119.039C386.938 119.209 386.799 119.345 386.626 119.345C386.453 119.345 386.31 119.209 386.31 119.039C386.31 118.945 386.171 109.574 379.121 99.2794C372.61 89.7692 358.703 77.5013 329.416 73.0424C273.508 64.5318 198.613 82.2168 123.942 121.567C123.788 121.646 123.599 121.589 123.518 121.442C123.438 121.291 123.495 121.106 123.645 121.027C198.44 81.617 273.473 63.9056 329.516 72.4387C359.053 76.9354 373.092 89.3504 379.668 98.9738C386.807 109.42 386.938 118.949 386.938 119.043V119.039Z" fill="url(#paint38_linear_265_4781)"/>
<path d="M383.484 89.5127C383.484 89.656 383.38 89.7843 383.23 89.8145C383.061 89.8484 382.895 89.7391 382.861 89.5731C382.845 89.4939 381.205 81.734 373.639 73.4838C366.65 65.8673 353.031 56.2666 327.834 53.773C285.083 49.5442 209.075 65.128 123.965 121.544C123.823 121.638 123.627 121.601 123.53 121.461C123.434 121.322 123.473 121.129 123.615 121.035C160.329 96.6991 199.438 77.6221 236.718 65.8636C271.017 55.0443 302.544 50.6533 327.896 53.1581C353.316 55.6706 367.07 65.3882 374.132 73.099C381.798 81.4699 383.457 89.3694 383.477 89.4486C383.48 89.4674 383.484 89.49 383.484 89.5089V89.5127Z" fill="url(#paint39_linear_265_4781)"/>
<path d="M372.522 59.7935C372.522 59.8991 372.464 60.0048 372.364 60.0614C372.214 60.1444 372.021 60.0953 371.937 59.9482C367.828 52.9127 350.282 30.5348 296.869 37.9438C233.991 46.6656 164.445 88.4223 123.992 121.529C123.857 121.638 123.661 121.619 123.549 121.491C123.438 121.359 123.457 121.167 123.588 121.057C164.102 87.8981 233.768 46.0771 296.776 37.3364C350.578 29.8708 368.317 52.5241 372.476 59.6464C372.503 59.6954 372.518 59.7482 372.518 59.7973L372.522 59.7935Z" fill="url(#paint40_linear_265_4781)"/>
<path d="M355.191 35.8993C355.191 35.986 355.156 36.069 355.083 36.1293C354.952 36.2425 354.756 36.2275 354.64 36.0992C354.594 36.0464 349.758 30.731 339.204 26.7097C329.459 22.9939 312.705 19.6515 288.228 24.8273C237.657 35.522 176.265 71.6653 124.007 121.51C123.884 121.627 123.684 121.627 123.565 121.502C123.441 121.382 123.445 121.186 123.572 121.069C175.911 71.1448 237.418 34.9411 288.097 24.2237C312.748 19.0103 329.643 22.3941 339.474 26.1514C350.151 30.2331 355.064 35.639 355.11 35.6918C355.164 35.7484 355.187 35.8238 355.187 35.8955L355.191 35.8993Z" fill="url(#paint41_linear_265_4781)"/>
<path d="M330.371 16.6978C330.371 16.7469 330.36 16.796 330.333 16.8412C330.252 16.9921 330.063 17.0487 329.909 16.9694C323.002 13.363 296.88 3.20402 250.706 23.8051C207.539 43.0632 164.919 75.932 124.027 121.495C123.912 121.623 123.715 121.635 123.584 121.521C123.453 121.408 123.442 121.216 123.557 121.088C164.507 75.4604 207.2 42.5388 250.448 23.243C296.884 2.525 323.237 12.7859 330.206 16.4225C330.314 16.4791 330.371 16.5847 330.371 16.6941V16.6978Z" fill="url(#paint42_linear_265_4781)"/>
<path d="M301.05 4.96556C301.05 4.98819 301.05 5.01458 301.043 5.03721C301.004 5.2032 300.835 5.30509 300.665 5.26359C294.589 3.85271 261.784 -1.42493 212.487 33.2094C159.012 70.7825 124.4 120.963 124.054 121.465C123.957 121.605 123.761 121.642 123.619 121.548C123.476 121.453 123.438 121.261 123.534 121.121C123.877 120.62 158.55 70.3487 212.121 32.7078C261.637 -2.08126 294.685 3.24533 300.808 4.66375C300.954 4.6977 301.05 4.8222 301.05 4.96178V4.96556Z" fill="url(#paint43_linear_265_4781)"/>
<path d="M269.542 0.47278C269.542 0.642538 269.4 0.778366 269.226 0.778366C257.741 0.702919 196.758 6.16541 124.061 121.454C123.969 121.597 123.777 121.642 123.63 121.552C123.484 121.461 123.438 121.272 123.526 121.129C196.399 5.56178 257.683 0.0880622 269.23 0.16351C269.404 0.16351 269.542 0.303018 269.542 0.469004V0.47278Z" fill="url(#paint44_linear_265_4781)"/>
<path d="M237.125 2.21552C237.125 2.36642 237.014 2.4947 236.86 2.51733C236.709 2.53997 221.62 4.95424 200.277 20.753C180.57 35.3409 151.354 64.6487 124.077 121.42C124.004 121.574 123.815 121.638 123.661 121.567C123.503 121.495 123.438 121.31 123.511 121.159C150.856 64.2413 180.17 34.8543 199.946 20.2287C221.404 4.35447 236.613 1.93257 236.763 1.90993C236.933 1.88353 237.095 2.00045 237.121 2.16643C237.121 2.18152 237.121 2.19665 237.121 2.21174L237.125 2.21552Z" fill="url(#paint45_linear_265_4781)"/>
<path d="M207.296 8.6135C207.296 8.74553 207.208 8.86626 207.073 8.90776C206.953 8.94548 194.805 12.6953 178.58 28.3696C163.601 42.8443 141.985 70.7298 124.088 121.393C124.031 121.551 123.853 121.638 123.688 121.582C123.522 121.525 123.438 121.352 123.495 121.189C141.446 70.3827 163.143 42.4067 178.183 27.8867C194.509 12.1256 206.769 8.35319 206.888 8.31546C207.054 8.26642 207.227 8.35698 207.281 8.51919C207.288 8.54937 207.292 8.57954 207.292 8.60972L207.296 8.6135Z" fill="url(#paint46_linear_265_4781)"/>
<path d="M181.483 17.5807C181.483 17.7014 181.41 17.8146 181.291 17.8636C181.19 17.9051 171.249 22.1679 159.285 36.9896C148.238 50.6797 133.168 76.4263 124.096 121.352C124.062 121.518 123.896 121.627 123.727 121.593C123.557 121.559 123.442 121.397 123.48 121.231C132.583 76.1471 147.726 50.3024 158.831 36.5596C170.887 21.636 180.944 17.3392 181.044 17.2977C181.202 17.2298 181.387 17.3053 181.456 17.4599C181.471 17.4976 181.483 17.5392 181.483 17.5807Z" fill="url(#paint47_linear_265_4781)"/>
<path d="M157.445 28.7922C157.445 28.9054 157.379 29.0148 157.268 29.0676C157.195 29.1015 149.729 32.8023 141.951 45.9604C134.762 58.1188 125.833 81.0587 124.104 121.306C124.096 121.476 123.95 121.608 123.777 121.601C123.603 121.593 123.492 121.442 123.476 121.28C125.213 80.855 134.208 57.8057 141.446 45.5869C149.32 32.3005 156.682 28.6639 156.99 28.5168C157.145 28.4414 157.333 28.5055 157.41 28.6564C157.433 28.7017 157.441 28.7469 157.441 28.7922H157.445Z" fill="url(#paint48_linear_265_4781)"/>
<path d="M133.915 42.5992C133.915 42.6973 133.865 42.7954 133.776 42.8557C133.726 42.8897 128.782 46.2207 125.136 57.4926C121.763 67.9158 118.848 87.4342 124.104 121.246C124.131 121.416 124.011 121.571 123.842 121.597C123.673 121.623 123.511 121.506 123.484 121.34C118.197 87.3361 121.154 67.697 124.566 57.2097C128.285 45.7793 133.222 42.4784 133.43 42.3426C133.572 42.2483 133.768 42.2898 133.865 42.4294C133.899 42.4822 133.919 42.5426 133.919 42.5992H133.915Z" fill="url(#paint49_linear_265_4781)"/>
<path d="M124.108 121.291C124.108 121.412 124.035 121.525 123.915 121.574C123.758 121.639 123.573 121.567 123.507 121.408C100.593 67.7159 111.582 57.9341 112.06 57.5455C112.195 57.4361 112.391 57.455 112.503 57.5871C112.614 57.7153 112.595 57.9114 112.464 58.0171C112.329 58.1302 101.448 68.1234 124.089 121.171C124.104 121.209 124.112 121.25 124.112 121.288L124.108 121.291Z" fill="url(#paint50_linear_265_4781)"/>
<path d="M124.108 121.291C124.108 121.382 124.065 121.472 123.988 121.533C123.853 121.638 123.653 121.616 123.545 121.484C93.0962 83.7672 91.4251 76.396 91.6523 75.0266C91.6985 74.7437 91.8217 74.623 91.8871 74.5777C92.0296 74.4834 92.226 74.5211 92.3223 74.6607C92.407 74.7852 92.3877 74.9436 92.2876 75.0455C92.1605 75.3284 90.9091 80.0703 124.034 121.103C124.081 121.159 124.1 121.227 124.1 121.291H124.108Z" fill="url(#paint51_linear_265_4781)"/>
</g>
<defs>
<linearGradient id="paint0_linear_265_4781" x1="158" y1="146.5" x2="295" y2="308" gradientUnits="userSpaceOnUse">
<stop stop-color="white"/>
<stop offset="0.934614" stop-color="#FF2100"/>
</linearGradient>
<linearGradient id="paint1_linear_265_4781" x1="158" y1="146.5" x2="295" y2="308" gradientUnits="userSpaceOnUse">
<stop stop-color="white"/>
<stop offset="0.934614" stop-color="#FF2100"/>
</linearGradient>
<linearGradient id="paint2_linear_265_4781" x1="158" y1="146.5" x2="295" y2="308" gradientUnits="userSpaceOnUse">
<stop stop-color="white"/>
<stop offset="0.934614" stop-color="#FF2100"/>
</linearGradient>
<linearGradient id="paint3_linear_265_4781" x1="158" y1="146.5" x2="295" y2="308" gradientUnits="userSpaceOnUse">
<stop stop-color="white"/>
<stop offset="0.934614" stop-color="#FF2100"/>
</linearGradient>
<linearGradient id="paint4_linear_265_4781" x1="158" y1="146.5" x2="295" y2="308" gradientUnits="userSpaceOnUse">
<stop stop-color="white"/>
<stop offset="0.934614" stop-color="#FF2100"/>
</linearGradient>
<linearGradient id="paint5_linear_265_4781" x1="158" y1="146.5" x2="295" y2="308" gradientUnits="userSpaceOnUse">
<stop stop-color="white"/>
<stop offset="0.934614" stop-color="#FF2100"/>
</linearGradient>
<linearGradient id="paint6_linear_265_4781" x1="158" y1="146.5" x2="295" y2="308" gradientUnits="userSpaceOnUse">
<stop stop-color="white"/>
<stop offset="0.934614" stop-color="#FF2100"/>
</linearGradient>
<linearGradient id="paint7_linear_265_4781" x1="158" y1="146.5" x2="295" y2="308" gradientUnits="userSpaceOnUse">
<stop stop-color="white"/>
<stop offset="0.934614" stop-color="#FF2100"/>
</linearGradient>
<linearGradient id="paint8_linear_265_4781" x1="158" y1="146.5" x2="295" y2="308" gradientUnits="userSpaceOnUse">
<stop stop-color="white"/>
<stop offset="0.934614" stop-color="#FF2100"/>
</linearGradient>
<linearGradient id="paint9_linear_265_4781" x1="158" y1="146.5" x2="295" y2="308" gradientUnits="userSpaceOnUse">
<stop stop-color="white"/>
<stop offset="0.934614" stop-color="#FF2100"/>
</linearGradient>
<linearGradient id="paint10_linear_265_4781" x1="158" y1="146.5" x2="295" y2="308" gradientUnits="userSpaceOnUse">
<stop stop-color="white"/>
<stop offset="0.934614" stop-color="#FF2100"/>
</linearGradient>
<linearGradient id="paint11_linear_265_4781" x1="158" y1="146.5" x2="295" y2="308" gradientUnits="userSpaceOnUse">
<stop stop-color="white"/>
<stop offset="0.934614" stop-color="#FF2100"/>
</linearGradient>
<linearGradient id="paint12_linear_265_4781" x1="158" y1="146.5" x2="295" y2="308" gradientUnits="userSpaceOnUse">
<stop stop-color="white"/>
<stop offset="0.934614" stop-color="#FF2100"/>
</linearGradient>
<linearGradient id="paint13_linear_265_4781" x1="158" y1="146.5" x2="295" y2="308" gradientUnits="userSpaceOnUse">
<stop stop-color="white"/>
<stop offset="0.934614" stop-color="#FF2100"/>
</linearGradient>
<linearGradient id="paint14_linear_265_4781" x1="158" y1="146.5" x2="295" y2="308" gradientUnits="userSpaceOnUse">
<stop stop-color="white"/>
<stop offset="0.934614" stop-color="#FF2100"/>
</linearGradient>
<linearGradient id="paint15_linear_265_4781" x1="158" y1="146.5" x2="295" y2="308" gradientUnits="userSpaceOnUse">
<stop stop-color="white"/>
<stop offset="0.934614" stop-color="#FF2100"/>
</linearGradient>
<linearGradient id="paint16_linear_265_4781" x1="158" y1="146.5" x2="295" y2="308" gradientUnits="userSpaceOnUse">
<stop stop-color="white"/>
<stop offset="0.934614" stop-color="#FF2100"/>
</linearGradient>
<linearGradient id="paint17_linear_265_4781" x1="158" y1="146.5" x2="295" y2="308" gradientUnits="userSpaceOnUse">
<stop stop-color="white"/>
<stop offset="0.934614" stop-color="#FF2100"/>
</linearGradient>
<linearGradient id="paint18_linear_265_4781" x1="158" y1="146.5" x2="295" y2="308" gradientUnits="userSpaceOnUse">
<stop stop-color="white"/>
<stop offset="0.934614" stop-color="#FF2100"/>
</linearGradient>
<linearGradient id="paint19_linear_265_4781" x1="158" y1="146.5" x2="295" y2="308" gradientUnits="userSpaceOnUse">
<stop stop-color="white"/>
<stop offset="0.934614" stop-color="#FF2100"/>
</linearGradient>
<linearGradient id="paint20_linear_265_4781" x1="158" y1="146.5" x2="295" y2="308" gradientUnits="userSpaceOnUse">
<stop stop-color="white"/>
<stop offset="0.934614" stop-color="#FF2100"/>
</linearGradient>
<linearGradient id="paint21_linear_265_4781" x1="158" y1="146.5" x2="295" y2="308" gradientUnits="userSpaceOnUse">
<stop stop-color="white"/>
<stop offset="0.934614" stop-color="#FF2100"/>
</linearGradient>
<linearGradient id="paint22_linear_265_4781" x1="158" y1="146.5" x2="295" y2="308" gradientUnits="userSpaceOnUse">
<stop stop-color="white"/>
<stop offset="0.934614" stop-color="#FF2100"/>
</linearGradient>
<linearGradient id="paint23_linear_265_4781" x1="158" y1="146.5" x2="295" y2="308" gradientUnits="userSpaceOnUse">
<stop stop-color="white"/>
<stop offset="0.934614" stop-color="#FF2100"/>
</linearGradient>
<linearGradient id="paint24_linear_265_4781" x1="158" y1="146.5" x2="295" y2="308" gradientUnits="userSpaceOnUse">
<stop stop-color="white"/>
<stop offset="0.934614" stop-color="#FF2100"/>
</linearGradient>
<linearGradient id="paint25_linear_265_4781" x1="158" y1="146.5" x2="295" y2="308" gradientUnits="userSpaceOnUse">
<stop stop-color="white"/>
<stop offset="0.934614" stop-color="#FF2100"/>
</linearGradient>
<linearGradient id="paint26_linear_265_4781" x1="158" y1="146.5" x2="295" y2="308" gradientUnits="userSpaceOnUse">
<stop stop-color="white"/>
<stop offset="0.934614" stop-color="#FF2100"/>
</linearGradient>
<linearGradient id="paint27_linear_265_4781" x1="158" y1="146.5" x2="295" y2="308" gradientUnits="userSpaceOnUse">
<stop stop-color="white"/>
<stop offset="0.934614" stop-color="#FF2100"/>
</linearGradient>
<linearGradient id="paint28_linear_265_4781" x1="158" y1="146.5" x2="295" y2="308" gradientUnits="userSpaceOnUse">
<stop stop-color="white"/>
<stop offset="0.934614" stop-color="#FF2100"/>
</linearGradient>
<linearGradient id="paint29_linear_265_4781" x1="158" y1="146.5" x2="295" y2="308" gradientUnits="userSpaceOnUse">
<stop stop-color="white"/>
<stop offset="0.934614" stop-color="#FF2100"/>
</linearGradient>
<linearGradient id="paint30_linear_265_4781" x1="158" y1="146.5" x2="295" y2="308" gradientUnits="userSpaceOnUse">
<stop stop-color="white"/>
<stop offset="0.934614" stop-color="#FF2100"/>
</linearGradient>
<linearGradient id="paint31_linear_265_4781" x1="158" y1="146.5" x2="295" y2="308" gradientUnits="userSpaceOnUse">
<stop stop-color="white"/>
<stop offset="0.934614" stop-color="#FF2100"/>
</linearGradient>
<linearGradient id="paint32_linear_265_4781" x1="158" y1="146.5" x2="295" y2="308" gradientUnits="userSpaceOnUse">
<stop stop-color="white"/>
<stop offset="0.934614" stop-color="#FF2100"/>
</linearGradient>
<linearGradient id="paint33_linear_265_4781" x1="158" y1="146.5" x2="295" y2="308" gradientUnits="userSpaceOnUse">
<stop stop-color="white"/>
<stop offset="0.934614" stop-color="#FF2100"/>
</linearGradient>
<linearGradient id="paint34_linear_265_4781" x1="158" y1="146.5" x2="295" y2="308" gradientUnits="userSpaceOnUse">
<stop stop-color="white"/>
<stop offset="0.934614" stop-color="#FF2100"/>
</linearGradient>
<linearGradient id="paint35_linear_265_4781" x1="158" y1="146.5" x2="295" y2="308" gradientUnits="userSpaceOnUse">
<stop stop-color="white"/>
<stop offset="0.934614" stop-color="#FF2100"/>
</linearGradient>
<linearGradient id="paint36_linear_265_4781" x1="158" y1="146.5" x2="295" y2="308" gradientUnits="userSpaceOnUse">
<stop stop-color="white"/>
<stop offset="0.934614" stop-color="#FF2100"/>
</linearGradient>
<linearGradient id="paint37_linear_265_4781" x1="158" y1="146.5" x2="295" y2="308" gradientUnits="userSpaceOnUse">
<stop stop-color="white"/>
<stop offset="0.934614" stop-color="#FF2100"/>
</linearGradient>
<linearGradient id="paint38_linear_265_4781" x1="158" y1="146.5" x2="295" y2="308" gradientUnits="userSpaceOnUse">
<stop stop-color="white"/>
<stop offset="0.934614" stop-color="#FF2100"/>
</linearGradient>
<linearGradient id="paint39_linear_265_4781" x1="158" y1="146.5" x2="295" y2="308" gradientUnits="userSpaceOnUse">
<stop stop-color="white"/>
<stop offset="0.934614" stop-color="#FF2100"/>
</linearGradient>
<linearGradient id="paint40_linear_265_4781" x1="158" y1="146.5" x2="295" y2="308" gradientUnits="userSpaceOnUse">
<stop stop-color="white"/>
<stop offset="0.934614" stop-color="#FF2100"/>
</linearGradient>
<linearGradient id="paint41_linear_265_4781" x1="158" y1="146.5" x2="295" y2="308" gradientUnits="userSpaceOnUse">
<stop stop-color="white"/>
<stop offset="0.934614" stop-color="#FF2100"/>
</linearGradient>
<linearGradient id="paint42_linear_265_4781" x1="158" y1="146.5" x2="295" y2="308" gradientUnits="userSpaceOnUse">
<stop stop-color="white"/>
<stop offset="0.934614" stop-color="#FF2100"/>
</linearGradient>
<linearGradient id="paint43_linear_265_4781" x1="158" y1="146.5" x2="295" y2="308" gradientUnits="userSpaceOnUse">
<stop stop-color="white"/>
<stop offset="0.934614" stop-color="#FF2100"/>
</linearGradient>
<linearGradient id="paint44_linear_265_4781" x1="158" y1="146.5" x2="295" y2="308" gradientUnits="userSpaceOnUse">
<stop stop-color="white"/>
<stop offset="0.934614" stop-color="#FF2100"/>
</linearGradient>
<linearGradient id="paint45_linear_265_4781" x1="158" y1="146.5" x2="295" y2="308" gradientUnits="userSpaceOnUse">
<stop stop-color="white"/>
<stop offset="0.934614" stop-color="#FF2100"/>
</linearGradient>
<linearGradient id="paint46_linear_265_4781" x1="158" y1="146.5" x2="295" y2="308" gradientUnits="userSpaceOnUse">
<stop stop-color="white"/>
<stop offset="0.934614" stop-color="#FF2100"/>
</linearGradient>
<linearGradient id="paint47_linear_265_4781" x1="158" y1="146.5" x2="295" y2="308" gradientUnits="userSpaceOnUse">
<stop stop-color="white"/>
<stop offset="0.934614" stop-color="#FF2100"/>
</linearGradient>
<linearGradient id="paint48_linear_265_4781" x1="158" y1="146.5" x2="295" y2="308" gradientUnits="userSpaceOnUse">
<stop stop-color="white"/>
<stop offset="0.934614" stop-color="#FF2100"/>
</linearGradient>
<linearGradient id="paint49_linear_265_4781" x1="158" y1="146.5" x2="295" y2="308" gradientUnits="userSpaceOnUse">
<stop stop-color="white"/>
<stop offset="0.934614" stop-color="#FF2100"/>
</linearGradient>
<linearGradient id="paint50_linear_265_4781" x1="158" y1="146.5" x2="295" y2="308" gradientUnits="userSpaceOnUse">
<stop stop-color="white"/>
<stop offset="0.934614" stop-color="#FF2100"/>
</linearGradient>
<linearGradient id="paint51_linear_265_4781" x1="158" y1="146.5" x2="295" y2="308" gradientUnits="userSpaceOnUse">
<stop stop-color="white"/>
<stop offset="0.934614" stop-color="#FF2100"/>
</linearGradient>
</defs>
</svg>
