<svg width="855" height="1720" viewBox="0 0 855 1720" fill="none" xmlns="http://www.w3.org/2000/svg">
<path d="M1074.25 1701.89L1170.3 1648.35L1253.82 1585.56L1318.63 1517.55L1361 1449.02L1377.2 1384.74L1367.03 1328.88L1330.31 1285.57L1270.35 1257.3L1228.79 1252.18L1185.61 1244.16L1233.98 1266.97L1263.62 1301.91L1271.82 1346.98L1258.74 1398.82L1224.56 1454.1L1172.28 1508.98L1104.89 1559.63L1027.4 1602.81M1330.29 1285.53L1282.97 1277.69L1233.97 1266.94L1181.64 1250.38L1127.3 1227.92L1072.29 1199.53L1017.7 1165.27L964.67 1125.22L914.024 1079.63L866.661 1028.73L830.799 981.854M1051.56 1653.9L1138.36 1605.52L1213.82 1548.77L1272.4 1487.29L1310.68 1425.39L1325.34 1367.31L1316.16 1316.82L1282.97 1277.69L1228.78 1252.16M683.586 592.254L690.383 647.51L706.339 718.622L728.55 788.278L756.857 855.802L791.08 920.53L830.819 981.898L875.653 1039.36L924.908 1092.5L977.91 1140.87L1033.72 1184.18L1091.41 1222.1L1149.79 1254.47L1207.67 1281.1L1263.62 1301.91L1316.18 1316.87L1367.03 1328.88M593.969 686.1L622.374 670.256L647.1 651.676L666.276 631.564L678.809 611.295L683.597 592.276M1127.32 1227.97L1149.79 1254.47L1156.01 1288.66L1146.09 1327.99L1120.14 1369.91L1080.49 1411.52L1029.36 1449.96L970.599 1482.73M1185.59 1244.17L1127.29 1227.96M1000.21 1545.35L1068.25 1507.41L1127.42 1462.92L1173.34 1414.72L1203.37 1366.19L1214.84 1320.65L1207.64 1281.06L1181.62 1250.39M1017.68 1165.28L1033.67 1184.13L1038.09 1208.44L1031.02 1236.42L1012.58 1266.24L984.379 1295.85L948.012 1323.2L906.194 1346.51M939.075 1416.05L989.015 1388.21L1032.47 1355.54L1066.17 1320.17L1088.19 1284.53L1096.63 1251.11L1091.34 1222.06L1072.24 1199.53M872.42 1275.14L907.005 1255.86L937.088 1233.25L960.415 1208.76L975.669 1184.1L981.512 1160.96L977.845 1140.84L964.626 1125.25M830.787 981.886L832.897 993.435L829.558 1006.73L820.812 1020.89L807.407 1034.95L790.144 1047.94L770.288 1059.01M804.091 1130.51L827.558 1117.43L847.973 1102.09L863.809 1085.46L874.173 1068.71L878.139 1053.01L875.653 1039.36L866.682 1028.77M737.241 989.12L754.912 979.264L770.279 967.709L782.198 955.211L789.988 942.6L792.958 930.794L791.102 920.519M408.004 292.786L470.623 268.165L532.773 253.042L590.097 248.806L638.956 255.355L675.653 272.641L698.13 299.143L691.218 336.86M694.431 372.685L668.498 414.624L628.847 456.239L577.72 494.675L518.945 527.424M485.68 457.07L581.73 403.533L665.255 340.745L730.064 272.731L772.431 204.203L788.632 139.923L778.466 84.0619L755.481 130.987L733.683 181.104L714.261 237.551L698.118 299.176L699.202 305.097M778.478 84.0296L741.756 40.7242L681.797 12.4544L601.948 1.71125L508.257 8.63862L406.705 33.3572L304.378 73.6161M667.464 338.387L675.631 272.651L688.234 206.829L704.031 146.118L722.268 91.8136L741.724 40.7127M439.497 359.393L492.711 338.469L545.531 325.613L594.255 322.011L635.773 327.608L664.605 341.186M636.209 362.548L635.795 327.597L638.956 255.355L645.775 186.825L655.681 123.351L668.091 66.3054L681.785 12.4866M351.224 172.695L433.768 140.208L515.679 120.272L591.268 114.692L655.681 123.351L704.042 146.14L733.672 181.082M733.672 181.082L741.875 226.157L728.809 278.016L694.625 333.292L642.345 388.171L574.958 438.825L497.48 482.026M721.478 277.139L714.293 237.562L688.255 206.873M506.845 501.833L574.884 463.899L634.059 419.407L679.98 371.208L710.004 322.67M688.255 206.873L645.785 186.847L589.22 179.251L522.828 184.155L450.891 201.654L378.397 230.166M730.064 272.731L750.014 239.573L764.669 181.493L755.491 131.009L722.299 91.8794M490.901 468.113L577.698 419.729L653.166 362.975L719.406 293.453M722.277 91.8897L668.09 66.3595L595.948 56.664L511.27 62.9223L419.517 85.2327L327.043 121.61M564.19 413.328L561.139 400.696L545.519 325.645L532.751 253.052L522.818 184.133L515.679 120.272L511.271 62.8681L508.245 8.6709M601.054 389.008L594.265 322.033L590.097 248.806L589.209 179.229L591.268 114.692L595.949 56.6098L601.937 1.7435M472.389 428.959L516.942 411.432L561.151 400.663L588.168 398.666M525.204 435.031L516.942 411.432L492.743 338.48L470.645 268.155L450.902 201.621L433.79 140.198L419.54 85.1682L406.727 33.3469M506.162 500.333L304.4 73.6057M618.853 738.674L642.32 725.595L662.735 710.259L678.571 693.63L688.935 676.88L692.902 661.172L690.415 647.522M924.93 1092.49L927.938 1109L923.151 1128.02L910.617 1148.29L891.441 1168.4L866.716 1186.98L838.31 1202.82M1377.22 1384.73L1325.38 1367.34L1271.84 1346.97L1214.89 1320.66L1156.03 1288.63L1096.71 1251.12L1038.15 1208.46L981.588 1160.95L927.938 1109L878.161 1053L832.941 993.415L792.98 930.784L758.69 865.632L755.839 876.953L748.386 889.029L736.977 901.018L722.261 912.078L705.336 921.528M706.404 718.646L708.513 730.195L705.174 743.488L696.428 757.65L683.023 771.709L665.76 784.697L645.904 795.774M674.808 856.904L692.479 847.047L707.846 835.492L719.764 822.994L727.554 810.384L730.524 798.578L728.669 788.303M571.524 638.403L606.109 619.129L636.192 596.514L659.519 572.027L674.773 547.362L680.616 524.225M683.322 457.827L676.257 485.805L657.81 515.625L629.612 545.231L593.245 572.586L551.427 595.897M719.59 283.635L721.564 277.152L741.971 226.191L764.756 181.506L788.729 139.958M533.897 558.879L583.837 531.03L627.292 498.367L660.995 462.996L683.017 427.356L691.449 393.934L694.484 372.741M1074.32 1701.93L485.714 457.027M1170.34 1648.33L1138.42 1605.54L1104.93 1559.61L1068.32 1507.41L1029.43 1449.93L989.102 1388.22L948.076 1323.22L907.081 1255.85L866.716 1186.98L827.58 1117.42L790.144 1047.94L754.912 979.264L722.207 912.077L692.392 847.035L665.674 784.684L642.32 725.595L622.396 670.246L606.012 619.094L593.148 572.551L583.774 530.953L577.743 494.61L574.897 463.813L574.981 438.76L577.711 419.642L581.753 403.469M1253.86 1585.52L1213.89 1548.79L1172.32 1508.95L1127.5 1462.91L1080.54 1411.5L1032.53 1355.57L984.443 1295.87L937.165 1233.24L891.431 1168.38L848.006 1102.05L807.45 1034.93L770.301 967.698L736.945 901.007L707.781 835.469L682.98 771.676L662.747 710.227L647.111 651.643L636.095 596.479L629.515 545.196L627.207 498.3L628.859 456.207L634.092 419.364L642.379 388.128L653.189 362.91L665.288 340.702M1318.67 1517.53L1272.47 1487.34L1224.61 1454.1L1173.43 1414.74L1120.22 1369.9L1066.27 1320.21L1012.68 1266.3L960.534 1208.79L910.65 1148.3L863.896 1085.48L820.877 1020.91L782.24 955.244L748.374 889.061L719.71 822.993L696.407 757.66L678.636 693.653L666.34 631.587L659.475 572.047L657.766 515.646L660.962 462.984L668.563 414.647L680.044 371.231L694.7 333.337M1361.07 1449.07L1310.79 1425.5L1258.83 1398.89L1203.48 1366.26L1146.19 1328.05L1088.35 1284.64L1031.18 1236.53L975.819 1184.19L923.214 1128.1L874.291 1068.79L829.675 1006.81L790.083 942.689L755.903 877.03L727.553 810.438L705.195 743.532L689.02 676.947L678.884 611.34L674.739 547.405L676.245 485.837L683.017 427.356L694.506 372.73L710.069 322.693L728.884 278.061L750.089 239.618L772.506 204.248M758.753 865.71L730.523 798.632L708.544 730.26L692.965 661.249L683.682 592.343L680.582 524.268L683.289 457.87L691.449 393.934M1027.49 1602.88L944.943 1635.36L863.032 1655.3L787.443 1660.88L723.03 1652.22L674.669 1629.43L645.038 1594.49L636.836 1549.41L649.902 1497.55L628.707 1536.02L606.29 1571.39L590.089 1635.67L600.255 1691.53L636.976 1734.84L696.936 1763.11L776.784 1773.85L870.475 1766.92L972.006 1742.21L1074.33 1701.95M672.361 1056.93L685.831 1114.39L695.114 1183.29L698.214 1251.37L695.507 1317.77L687.347 1381.7L674.384 1442.23L657.253 1498.48L636.846 1549.44L614.062 1594.12L590.089 1635.67M628.717 1536.04L614.062 1594.12L623.24 1644.61L656.432 1683.74L710.62 1709.27L782.761 1718.96L867.44 1712.7L959.192 1690.39L1051.67 1654.01M600.17 1691.46L623.155 1644.54L644.953 1594.42L664.375 1537.97L680.518 1476.35L692.553 1410.69L699.852 1342.04L701.795 1271.42L698.047 1199.76L688.232 1127.97L672.276 1056.86L650.065 987.204L621.758 919.679L587.535 854.952L547.795 793.584L502.962 736.126L464.57 695.809M464.57 695.809L482.307 704.178L505.925 707.353L533.637 705.296L563.688 697.977L593.958 686.078M970.611 1482.7L907.992 1507.32L845.842 1522.44L788.518 1526.68L739.659 1520.13L702.962 1502.84L680.485 1476.34L674.266 1442.15M674.266 1442.15L649.794 1497.5M657.136 1498.4L664.321 1537.97L690.359 1568.66L732.829 1588.69L789.394 1596.29L855.786 1591.38L927.723 1573.88L1000.22 1545.37M906.225 1346.58L861.672 1364.1L817.453 1374.85L776.677 1377.86L741.925 1373.19L715.818 1360.9L699.83 1342.05L695.41 1317.73M687.25 1381.67L692.542 1410.72L711.637 1433.25L742.818 1447.94L784.337 1453.54L833.061 1449.93L885.881 1437.08L939.095 1416.15M698.095 1251.35L701.762 1271.46L714.981 1287.06L736.57 1297.23L765.312 1301.09L799.04 1298.6L835.608 1289.7L872.452 1275.2M770.255 1059.06L749.094 1067.37L728.101 1072.47L708.729 1073.91L692.234 1071.68L679.841 1065.83L672.254 1056.87M685.724 1114.33L688.21 1127.98L697.181 1138.57L711.839 1145.47L731.361 1148.09L754.262 1146.4L779.07 1140.35L804.069 1130.52M650.043 987.214L656.807 995.168L667.815 1000.36L682.505 1002.35L699.728 1001.07L718.41 996.523L737.241 989.12M262.366 539.628L228.831 521.035L222.612 486.845L232.54 447.514L258.483 405.598L298.134 363.983L349.261 325.547L408.026 292.775M518.967 527.414L456.358 552.057L394.209 567.18L336.884 571.416L288.015 564.845M232.752 525.642L228.863 521.046L170.992 494.416L115.042 473.606L62.4765 458.649L11.5916 446.624L48.313 489.93L108.273 518.199L188.121 528.943L281.812 522.015L383.342 497.307L485.67 457.048M304.378 73.6161L208.328 127.153L124.803 189.941L59.9943 257.955L17.6266 326.483L1.42567 390.763L11.5916 446.624M1.42567 390.763L53.2659 408.154L106.808 428.52L163.753 454.838L222.622 486.867L278.609 522.27M282.564 521.847L290.366 490.948L312.388 455.309L346.091 419.937L389.545 387.274L439.486 359.426M17.6266 326.483L67.9107 350.052L119.873 376.661L175.217 409.285L232.507 447.503L290.345 490.904L317.095 513.402M115.01 473.595L106.808 428.52L119.884 376.683L154.068 321.407L206.348 266.528L273.734 215.874L351.224 172.695M497.48 482.026L414.925 514.491L333.014 534.427L257.425 540.007L193.012 531.349L144.641 508.537L115.01 473.595M163.753 454.838L170.948 494.437L196.976 525.104M239.446 545.13L296.011 552.726L362.403 547.822L434.34 530.323L506.834 501.811M378.397 230.166L310.357 268.1L251.183 312.592L205.262 360.791L175.237 409.329L163.763 454.86M53.2659 408.154L62.4442 458.638L95.6364 497.768L149.824 523.298L188.111 528.921M210.857 533.822L306.622 526.745L398.374 504.435L490.848 468.058M327.012 121.544L240.215 169.929L164.748 226.682L106.176 288.155L67.8888 350.063L53.2336 408.143M124.803 189.941L164.77 226.672L206.337 266.506L251.162 312.548L298.124 363.961L346.124 419.895L394.215 479.593L402.042 489.967M60.0046 257.977L106.208 288.167L154.068 321.407L205.251 360.769L258.461 405.608L312.41 455.298L359.864 503.046M375.538 499.228L394.226 479.615L430.603 452.281L472.421 428.971M208.328 127.153L240.247 169.94L273.734 215.874L310.347 268.078L349.239 325.557L389.567 387.264L430.593 452.259L443.588 473.621M502.972 736.148L511.943 746.731L526.601 753.634L546.123 756.253L569.024 754.567L593.832 748.521L618.831 738.684M838.288 1202.83L808.018 1214.73L777.967 1222.05L750.255 1224.11L726.637 1220.93L708.9 1212.57L698.047 1199.76M705.292 921.549L687.248 928.632L669.362 932.988L652.857 934.197L638.794 932.294L628.236 927.313L656.828 995.158L679.874 1065.79L697.225 1138.54L708.922 1212.56L715.026 1286.98L715.852 1360.85L711.66 1433.18L703.006 1502.82L690.403 1568.64L674.606 1629.35L656.369 1683.66L636.913 1734.76M645.818 795.761L624.657 804.077L603.665 809.177L584.292 810.616L567.797 808.389L555.404 802.533L547.817 793.574M587.557 854.942L594.32 862.896L605.329 868.093L620.019 870.075L637.241 868.795L655.923 864.251L674.755 856.848M413.968 650.192L435.557 660.359L464.3 664.222L498.027 661.733L534.596 652.834L571.439 638.336M551.341 595.83L506.788 613.356L462.569 624.104L421.794 627.11L387.042 622.443L360.935 610.149M48.313 489.93L95.6364 497.768L144.631 508.515L196.966 525.082L203.229 527.67M287.972 564.811L306.278 575.914L337.46 590.607L378.978 596.203L427.702 592.602L480.522 579.745L533.736 558.821M383.278 497.284L398.342 504.423L414.85 514.446L434.265 530.278L456.261 552.022L480.522 579.745L506.723 613.387L534.53 652.865L563.666 697.987L593.8 748.509L624.647 804.055L655.879 864.272L687.228 928.589L718.399 996.501L749.117 1067.31L779.059 1140.33L807.985 1214.72L835.599 1289.63L861.651 1364.06L885.85 1437.01L907.948 1507.34L927.691 1573.87L944.803 1635.29L959.053 1690.32L971.866 1742.15M281.812 522.015L306.654 526.757L333.004 534.405L362.403 547.822L394.198 567.158L427.778 592.593L462.557 624.136L498.016 661.765L533.659 705.285L569.014 754.545L603.665 809.177L637.23 868.827L669.374 932.955L699.75 1001.06L728.135 1072.43L754.274 1146.37L777.979 1222.02L799.085 1298.53L817.486 1374.81L833.106 1449.86L845.875 1522.45L855.808 1591.37L862.946 1655.23L867.354 1712.64L870.38 1766.83M257.415 539.985L296.001 552.705L336.841 571.382L379.022 596.182L421.75 627.131L464.256 664.243L505.915 707.331L546.08 756.22L584.272 810.572L619.976 870.041L652.847 934.121L682.506 1002.29L708.742 1073.83L731.34 1148.04L750.224 1224.04L765.315 1300.98L776.668 1377.78L784.329 1453.4L788.497 1526.63L789.385 1596.21L787.326 1660.75L782.645 1718.83L776.658 1773.69M108.273 518.199L149.834 523.32L193.002 531.327L239.435 545.108L287.983 564.833L337.492 590.618L386.986 622.496L435.524 660.402L482.307 704.178L526.579 753.644L567.775 808.399L605.296 868.136L638.772 932.304L667.826 1000.39L692.256 1071.67L711.849 1145.49L726.637 1220.93L736.604 1297.18L741.925 1373.19L742.83 1447.91L739.67 1520.15L732.851 1588.68L722.944 1652.15L710.534 1709.2L696.84 1763.02M306.32 575.948L360.912 610.214L413.945 650.257L464.591 695.852L511.954 746.753L555.403 802.587L594.297 862.961L628.224 927.346" stroke="url(#paint0_linear_265_4779)" stroke-opacity="0.8" stroke-width="1.5" stroke-linecap="round" stroke-linejoin="round"/>
<defs>
<linearGradient id="paint0_linear_265_4779" x1="304.389" y1="73.6109" x2="1074.3" y2="1701.97" gradientUnits="userSpaceOnUse">
<stop stop-color="#1BFF00" stop-opacity="0.5"/>
<stop offset="0.77866" stop-color="#0038FF"/>
</linearGradient>
</defs>
</svg>
