<svg width="678" height="783" viewBox="0 0 678 783" fill="none" xmlns="http://www.w3.org/2000/svg">
<g opacity="0.4">
<path d="M339 780.759L311.524 764.893V733.161L339 717.296L366.476 733.161V764.893L339 780.759ZM313.464 763.772L339 778.517L364.536 763.772V734.281L339 719.535L313.464 734.281V763.772Z" fill="#FF2100"/>
<path d="M339 780.759L309.527 763.741V729.705L339 712.687L368.473 729.705V763.741L339 780.759ZM311.467 762.621L339 778.519L366.533 762.621V730.824L339 714.926L311.467 730.824V762.621Z" fill="#FF2100"/>
<path d="M339 780.759L307.383 762.502V725.988L339 707.73L370.617 725.988V762.502L339 780.759ZM309.323 761.381L339 778.517L368.677 761.381V727.108L339 709.972L309.323 727.108V761.381Z" fill="#FF2100"/>
<path d="M339 780.759L305.076 761.169V721.99L339 702.401L372.924 721.99V761.169L339 780.759ZM307.016 760.049L339 778.519L370.984 760.049V723.112L339 704.643L307.016 723.112V760.049Z" fill="#FF2100"/>
<path d="M339 780.759L302.596 759.737V717.694L339 696.672L375.404 717.694V759.737L339 780.759ZM304.536 758.617L339 778.519L373.464 758.617V718.815L339 698.916L304.536 718.815V758.617Z" fill="#FF2100"/>
<path d="M339 780.759L299.928 758.198V713.075L339 690.514L378.072 713.075V758.198L339 780.759ZM301.868 757.076L339 778.517L376.132 757.076V714.195L339 692.754L301.868 714.195V757.076Z" fill="#FF2100"/>
<path d="M339 780.759L297.06 756.541V708.107L339 683.889L380.94 708.107V756.541L339 780.759ZM299 755.421L339 778.517L379 755.421V709.227L339 686.13L299 709.227V755.421Z" fill="#FF2100"/>
<path d="M339 780.759L293.977 754.761V702.766L339 676.768L384.023 702.766V754.761L339 780.759ZM295.917 753.639L339 778.517L382.083 753.639V703.884L339 679.006L295.917 703.884V753.639Z" fill="#FF2100"/>
<path d="M339 780.759L290.66 752.846V697.02L339 669.107L387.34 697.02V752.846L339 780.759ZM292.601 751.726L339 778.517L385.399 751.726V698.141L339 671.35L292.601 698.141V751.726Z" fill="#FF2100"/>
<path d="M339 780.759L287.096 750.786V690.844L339 660.872L390.904 690.844V750.786L339 780.759ZM289.036 749.667L339 778.517L388.964 749.667V691.964L339 663.114L289.036 691.964V749.667Z" fill="#FF2100"/>
<path d="M339 780.759L283.262 748.574V684.203L339 652.019L394.738 684.203V748.574L339 780.759ZM285.202 747.452L339 778.517L392.798 747.452V685.323L339 654.258L285.202 685.323V747.452Z" fill="#FF2100"/>
<path d="M339 780.759L279.138 746.193V677.061L339 642.496L398.862 677.061V746.193L339 780.759ZM281.079 745.073L339 778.519L396.921 745.073V678.183L339 644.737L281.079 678.183V745.073Z" fill="#FF2100"/>
<path d="M339 780.759L274.706 743.633V669.382L339 632.257L403.294 669.382V743.633L339 780.759ZM276.647 742.513L339 778.519L401.353 742.513V670.504L339 634.5L276.647 670.504V742.513Z" fill="#FF2100"/>
<path d="M339 780.759L269.941 740.881V661.126L339 621.249L408.059 661.126V740.881L339 780.759ZM271.881 739.761L339 778.519L406.119 739.761V662.248L339 623.491L271.881 662.248V739.761Z" fill="#FF2100"/>
<path d="M339 780.759L264.816 737.922V652.248L339 609.411L413.184 652.248V737.922L339 780.759ZM266.756 736.802L339 778.519L411.244 736.802V653.37L339 611.652L266.756 653.37V736.802Z" fill="#FF2100"/>
<path d="M339 780.759L259.305 734.739V642.701L339 596.684L418.695 642.701V734.739L339 780.759ZM261.246 733.619L339 778.517L416.754 733.619V643.823L339 598.925L261.246 643.823V733.619Z" fill="#FF2100"/>
<path d="M339 780.759L253.379 731.317V632.437L339 582.996L424.621 632.437V731.317L339 780.759ZM255.32 730.198L339 778.517L422.68 730.198V633.557L339 585.238L255.32 633.557V730.198Z" fill="#FF2100"/>
<path d="M339 780.759L247.007 727.64V621.4L339 568.282L430.993 621.4V727.64L339 780.759ZM248.947 726.518L339 778.517L429.053 726.518V622.52L339 570.521L248.947 622.52V726.518Z" fill="#FF2100"/>
<path d="M339 780.759L240.155 723.683V609.531L339 552.455L437.843 609.531V723.683L339 780.759ZM242.096 722.563L339 778.519L435.902 722.563V610.653L339 554.697L242.096 610.653V722.563Z" fill="#FF2100"/>
<path d="M339 780.759L232.789 719.429V596.769L339 535.439L445.21 596.769V719.429L339 780.759ZM234.73 718.309L339 778.519L443.27 718.309V597.891L339 537.681L234.73 597.891V718.309Z" fill="#FF2100"/>
<path d="M339 780.759L224.869 714.854V583.048L339 517.144L453.131 583.048V714.854L339 780.759ZM226.809 713.735L339 778.517L451.191 713.735V584.168L339 519.386L226.809 584.168V713.735Z" fill="#FF2100"/>
<path d="M339 780.759L216.35 709.937V568.293L339 497.472L461.65 568.293V709.937L339 780.759ZM218.291 708.817L339 778.519L459.709 708.817V569.415L339 499.713L218.291 569.415V708.817Z" fill="#FF2100"/>
<path d="M339 780.759L207.192 704.648V552.428L339 476.318L470.808 552.428V704.648L339 780.759ZM209.132 703.529L339 778.519L468.868 703.529V553.548L339 478.558L209.132 553.548V703.529Z" fill="#FF2100"/>
<path d="M339 780.759L197.344 698.962V535.367L339 453.571L480.656 535.367V698.962L339 780.759ZM199.284 697.84L339 778.517L478.716 697.84V536.487L339 455.811L199.284 536.487V697.84Z" fill="#FF2100"/>
<path d="M339 780.759L186.755 692.847V517.024L339 429.113L491.245 517.024V692.847L339 780.759ZM188.696 691.727L339 778.519L489.304 691.727V518.146L339 431.354L188.696 518.146V691.727Z" fill="#FF2100"/>
<path d="M339 780.759L175.369 686.272V497.299L339 402.812L502.631 497.299V686.272L339 780.759ZM177.309 685.152L339 778.519L500.691 685.152V498.421L339 405.054L177.309 498.421V685.152Z" fill="#FF2100"/>
<path d="M339 780.759L163.125 679.202V476.089L339 374.533L514.875 476.089V679.202L339 780.759ZM165.065 678.082L339 778.517L512.935 678.082V477.211L339 376.776L165.065 477.211V678.082Z" fill="#FF2100"/>
<path d="M339 780.759L149.961 671.6V453.284L339 344.126L528.039 453.284V671.6L339 780.759ZM151.901 670.481L339 778.519L526.099 670.481V454.406L339 346.367L151.901 454.406V670.481Z" fill="#FF2100"/>
<path d="M339 780.759L135.804 663.426V428.763L339 311.431L542.196 428.763V663.426L339 780.759ZM137.744 662.306L339 778.517L540.256 662.306V429.883L339 313.672L137.744 429.883V662.306Z" fill="#FF2100"/>
<path d="M339 780.759L120.583 654.637V402.395L339 276.273L557.417 402.395V654.637L339 780.759ZM122.524 653.517L339 778.517L555.476 653.517V403.515L339 278.515L122.524 403.515V653.517Z" fill="#FF2100"/>
<path d="M339 780.759L104.216 645.186V374.043L339 238.47L573.784 374.043V645.188L339 780.76V780.759ZM106.156 644.066L339 778.517L571.844 644.066V375.163L339 240.712L106.156 375.163V644.066Z" fill="#FF2100"/>
<path d="M339 780.759L86.6181 635.026V343.557L339 197.823L591.382 343.557V635.026L339 780.76V780.759ZM88.5585 633.904L339 778.519L589.441 633.904V344.677L339 200.062L88.5585 344.677V633.904Z" fill="#FF2100"/>
<path d="M339 780.759L67.6933 624.098V310.775L339 154.114L610.307 310.775V624.098L339 780.759ZM69.6337 622.978L339 778.519L608.366 622.978V311.897L339 156.356L69.6337 311.897V622.978Z" fill="#FF2100"/>
<path d="M339 780.759L47.3461 612.349V275.526L339 107.117L630.654 275.528V612.349L339 780.76V780.759ZM49.2865 611.227L339 778.517L628.713 611.227V276.648L339 109.356L49.2865 276.648V611.229V611.227Z" fill="#FF2100"/>
<path d="M339 780.759L25.466 599.715V237.624L25.9511 237.345L339 56.5809L652.534 237.626V599.715L339 780.76V780.759ZM27.4064 598.593L339 778.517L650.594 598.593V238.746L339 58.8205L27.4064 238.746V598.595V598.593Z" fill="#FF2100"/>
<path d="M339 783L0 587.25V195.75L339 0L678 195.75V587.25L339 783ZM5.82124 583.889L339 776.277L672.179 583.889V199.111L339 6.72256L5.82124 199.111V583.889Z" fill="#FF2100"/>
</g>
</svg>
